<svg xmlns="http://www.w3.org/2000/svg" width="114.744" height="140.004" viewBox="0 0 114.744 140.004">
  <defs>
    <style>
      .cls-1 {
        fill: #112d4e;
      }
    </style>
  </defs>
  <g id="Group_72" data-name="Group 72" transform="translate(-438.453 -3027.41)">
    <path id="Broom" class="cls-1" d="M176462.906,42970.188a2.4,2.4,0,0,1-2.406,2.391,2.356,2.356,0,0,1-2.344-2.391l-.062-52.062h0a1.226,1.226,0,0,0-.375-.937,1.341,1.341,0,0,0-.922-.391h0a1.379,1.379,0,0,0-.937.391,1.275,1.275,0,0,0-.391.938h0v56.383h6.453a4.268,4.268,0,0,1,4.266,4.273v5.57a2.416,2.416,0,0,1-2.406,2.4h-13.766a17.444,17.444,0,0,0-5.859,2.234,14.04,14.04,0,0,0-6.078,8.32,21.993,21.993,0,0,0-.359,9.773,13.386,13.386,0,0,0,1.5,4.266c1.938,3.133,2.922,8.109,3.141,12.914.266,5.711-.562,11.43-2.078,13.641a27.315,27.315,0,0,1-1.719,2.266,9.746,9.746,0,0,0,3.516.383,4.968,4.968,0,0,0,2.359-.984,12.458,12.458,0,0,0,2.219-2.164,17.428,17.428,0,0,1-.031-8.328,2.363,2.363,0,0,1,2.844-1.758,2.4,2.4,0,0,1,1.8,2.875,13.4,13.4,0,0,0,.172,6.781c.063.18.109.359.156.531a24.076,24.076,0,0,0,5.2,8.711c2.563-2.867,7.2-9.187,5.516-16.023a2.387,2.387,0,0,1,4.641-1.117c2.953,12.086-8.531,22.281-8.578,22.313a2.4,2.4,0,0,1-3.219,0,33.376,33.376,0,0,1-6.672-8.977,13.333,13.333,0,0,1-1.266,1.016,9.458,9.458,0,0,1-4.75,1.891,16.023,16.023,0,0,1-9.516-2.547,2.37,2.37,0,0,1-.609-3.312,2.617,2.617,0,0,1,.828-.758h0s1.2-.633,3.172-3.492c.984-1.422,1.469-5.922,1.25-10.727-.219-4.086-.969-8.211-2.453-10.609a17.747,17.747,0,0,1-2.094-5.9,26.507,26.507,0,0,1,.438-11.953,18.491,18.491,0,0,1,8.141-11.109,22.3,22.3,0,0,1,5.766-2.461v-3.664a4.291,4.291,0,0,1,1.25-3.016l.016-.008a4.4,4.4,0,0,1,2.016-1.141v-56.492h0a6.148,6.148,0,0,1,6.125-6.125h0a6.2,6.2,0,0,1,4.328,1.8,6.126,6.126,0,0,1,1.781,4.32h0Zm5.891,74.648a6.457,6.457,0,0,0,2.109.477,16.042,16.042,0,0,0,9.563-2.547,2.367,2.367,0,0,0,.594-3.312,2.159,2.159,0,0,0-.812-.758h0s-1.25-.633-3.156-3.492c-.984-1.422-1.5-5.922-1.281-10.727.219-4.086.969-8.211,2.469-10.609a17.406,17.406,0,0,0,2.094-5.9,26.507,26.507,0,0,0-.437-11.953,18,18,0,0,0-3.906-7.437c-6.016-6.523-8.844-.8-3.641,3.086,1.766,1.313,2.391,3.625,2.953,5.641a21.753,21.753,0,0,1,.344,9.773,12.663,12.663,0,0,1-1.5,4.266c-1.922,3.133-2.891,8.109-3.109,12.914-.3,5.711.547,11.43,2.016,13.641a27.065,27.065,0,0,0,1.75,2.266,9.788,9.788,0,0,1-3.516.383C176467.906,43038.828,176465.2,43043.234,176468.8,43044.836Zm5.031-43.078a2.4,2.4,0,0,1-4.8.258,9.175,9.175,0,0,0-1.953-4.8,10.941,10.941,0,0,0-4.391-3.641,2.387,2.387,0,0,1,1.719-4.453,16.154,16.154,0,0,1,6.5,5.227A13.853,13.853,0,0,1,176473.828,43001.758Zm-21.891,18.242a2.374,2.374,0,0,1-2.359,2.391,2.4,2.4,0,0,1-2.406-2.391c0-7.719-2.25-11.789-2.266-11.8a2.392,2.392,0,0,1,4.234-2.227C176449.141,43005.992,176451.938,43011.039,176451.938,43020Zm9.438-40.7h-9.172v2.648h9.172Z" transform="translate(-175993.469 -39884.59)"/>
    <g id="Bucket" transform="translate(488 3081)">
      <g id="Group_34" data-name="Group 34">
        <path id="Path_61" data-name="Path 61" class="cls-1" d="M14.953,37.518V48.3a1.861,1.861,0,0,0,1.86,1.86h2.96L22.921,84.3a5.421,5.421,0,0,0,5.423,4.946H61.773A5.419,5.419,0,0,0,67.194,84.3l.306-3.319a13.092,13.092,0,0,0,4.574-1.6c7.439-4.294,9.471-15.58,4.828-26.835a1.86,1.86,0,1,0-3.439,1.419c3.921,9.509,2.555,18.843-3.25,22.194-3.162,1.826-7.276,1.671-11.585-.438A28.631,28.631,0,0,1,46.907,64.194a33.648,33.648,0,0,1-1.632-3.228h3.094a1.861,1.861,0,0,0,0-3.721H36.681a1.86,1.86,0,1,0,0,3.721h4.565a37.091,37.091,0,0,0,2.439,5.088,32.361,32.361,0,0,0,13.309,13.01,19.882,19.882,0,0,0,6.762,2l-.266,2.888a1.718,1.718,0,0,1-1.718,1.566H28.343a1.716,1.716,0,0,1-1.717-1.566l-3.116-33.8H36.683a1.861,1.861,0,0,0,0-3.721H18.675V39.378H33.41l7.96.016v1.022A6.206,6.206,0,0,0,50.063,46.1v5.772a6.623,6.623,0,1,0,13.246,0V39.437l8.132.016v6.983H65.79a1.861,1.861,0,0,0,0,3.721h.817L64.528,72.7a1.859,1.859,0,0,0,1.682,2.023,1.68,1.68,0,0,0,.173.007,1.86,1.86,0,0,0,1.85-1.689l2.111-22.888H73.3a1.861,1.861,0,0,0,1.86-1.86V37.518a1.857,1.857,0,0,0-1.244-1.748A9.822,9.822,0,0,0,74,34.531a9.7,9.7,0,0,0-12.9-9.155,12.6,12.6,0,0,0-19.227-3.312,15.364,15.364,0,0,0-8.589-2.641,15.18,15.18,0,0,0-6.921,1.647,1.86,1.86,0,0,0,1.682,3.319,11.489,11.489,0,0,1,5.24-1.246,11.668,11.668,0,0,1,7.547,2.794,1.862,1.862,0,0,0,2.606-.193A8.884,8.884,0,0,1,58.469,28.5a1.86,1.86,0,0,0,2.709.939,5.407,5.407,0,0,1,.914-.454,1.708,1.708,0,0,0,.158-.068,5.878,5.878,0,0,1,2.049-.366,5.971,5.971,0,0,1,5.878,7.1H61.45a1.861,1.861,0,0,0-1.86,1.86q0,.013,0,.027V51.871a2.9,2.9,0,0,1-5.8,0V40.416a1.861,1.861,0,1,0-3.721,0,2.486,2.486,0,1,1-4.973,0v-2.9a1.861,1.861,0,0,0-1.86-1.86H33.4l-11.709-.022q-.031-.427-.031-.859a11.526,11.526,0,0,1,1.1-4.951,11.681,11.681,0,0,1,1.154-1.937,1.862,1.862,0,1,0-3-2.2,15.3,15.3,0,0,0-2.982,9.094c0,.3.027.588.043.881H16.816a1.862,1.862,0,0,0-1.863,1.858Z" transform="translate(-14.953 -6.422)"/>
        <path id="Path_62" data-name="Path 62" class="cls-1" d="M66.443,15.547A6.248,6.248,0,0,0,60.923,18a1.86,1.86,0,0,0,2.96,2.254,2.561,2.561,0,0,1,4.591,1.758,1.86,1.86,0,0,0,1.7,2.008c.053,0,.1.007.156.007a1.861,1.861,0,0,0,1.852-1.706,6.278,6.278,0,0,0-5.736-6.778Z" transform="translate(-18.138 -6.181)"/>
        <path id="Path_63" data-name="Path 63" class="cls-1" d="M50.072,11.67a6.191,6.191,0,1,0-6.191,6.191,6.191,6.191,0,0,0,6.191-6.191Zm-8.662,0a2.47,2.47,0,1,1,2.47,2.47,2.47,2.47,0,0,1-2.47-2.47Z" transform="translate(-16.541 -5.479)"/>
        <path id="Path_64" data-name="Path 64" class="cls-1" d="M77.926,17.862a6.191,6.191,0,1,0-6.191-6.191,6.191,6.191,0,0,0,6.191,6.191Zm0-8.662a2.47,2.47,0,1,1-2.47,2.47,2.47,2.47,0,0,1,2.47-2.47Z" transform="translate(-18.92 -5.479)"/>
        <path id="Path_65" data-name="Path 65" class="cls-1" d="M20.276,20.813a1.633,1.633,0,0,0,.223.279,1.906,1.906,0,0,0,1.321.549,2.4,2.4,0,0,0,.363-.037,2.125,2.125,0,0,0,.344-.112,2.152,2.152,0,0,0,.326-.167,1.684,1.684,0,0,0,.279-.233,1.325,1.325,0,0,0,.233-.279,2.2,2.2,0,0,0,.177-.326,1.467,1.467,0,0,0,.1-.344,1.6,1.6,0,0,0,.037-.363,2.043,2.043,0,0,0-.14-.716,2.109,2.109,0,0,0-.177-.316,1.376,1.376,0,0,0-.233-.288,2.311,2.311,0,0,0-.279-.233,2.152,2.152,0,0,0-.326-.167,1.467,1.467,0,0,0-.344-.1,1.9,1.9,0,0,0-1.684.5,1.7,1.7,0,0,0-.223.288,1.519,1.519,0,0,0-.177.316,2.043,2.043,0,0,0-.14.716,1.6,1.6,0,0,0,.037.363,1.467,1.467,0,0,0,.1.344A1.585,1.585,0,0,0,20.276,20.813Z" transform="translate(-15.303 -6.348)"/>
        <path id="Path_66" data-name="Path 66" class="cls-1" d="M61.361,10.5a2.076,2.076,0,0,0-.4-.6,1.908,1.908,0,0,0-1.684-.512,2.47,2.47,0,0,0-.344.112,2.2,2.2,0,0,0-.326.167,1.684,1.684,0,0,0-.279.233,1.64,1.64,0,0,0-.233.279,2.247,2.247,0,0,0-.168.326,2.468,2.468,0,0,0-.112.344,2.4,2.4,0,0,0-.036.363,1.889,1.889,0,0,0,.549,1.321,2.241,2.241,0,0,0,.279.233,2.109,2.109,0,0,0,.326.167,1.94,1.94,0,0,0,.708.14,1.842,1.842,0,0,0,1.86-1.86,1.915,1.915,0,0,0-.14-.707Z" transform="translate(-17.945 -5.75)"/>
      </g>
    </g>
  </g>
</svg>
