<svg xmlns="http://www.w3.org/2000/svg" data-name="Layer 1" viewBox="0 0 100 125" x="0px" y="0px"><title>nmswitch-broomwitchy</title><path d="M36.35,40.57a1.24,1.24,0,0,1-.86-.35L7.89,13.92a4.86,4.86,0,0,1-1.46-3.29A4.36,4.36,0,0,1,11,6.08a4.84,4.84,0,0,1,3.26,1.44l25.06,28a1.25,1.25,0,0,1-1.86,1.67l-25-28a2.32,2.32,0,0,0-1.54-.66,1.87,1.87,0,0,0-2,2,2.36,2.36,0,0,0,.71,1.58L37.22,38.41a1.25,1.25,0,0,1-.86,2.15Z"/><path d="M68.34,94.87a5.11,5.11,0,0,1-.61,0l-.93-.12-.14-.93C64.78,81.55,59.56,79.65,54,77.65c-3-1.08-6.06-2.2-8.71-4.86a18.58,18.58,0,0,1,0-26.87,19.26,19.26,0,0,1,26.87,0c2.26,2.27,3.69,5.33,5.2,8.57,3,6.56,5.93,12.75,15.59,12.76h1.28l0,1.28c0,.19-.16,4.63-3.38,6.81-2.13,1.44-5,1.52-8.5.22a1.25,1.25,0,1,1,.87-2.34c2.71,1,4.81,1,6.23.05a5.74,5.74,0,0,0,2.11-3.57c-10.13-.62-13.47-7.8-16.43-14.16-1.41-3-2.75-5.91-4.7-7.86a16.93,16.93,0,0,0-23.33,0A16.14,16.14,0,0,0,47.1,71c2.26,2.26,5,3.24,7.8,4.28,5.8,2.11,11.8,4.29,14,17a4.36,4.36,0,0,0,2.58-1.21c1.41-1.41,1.94-4,1.53-7.61a1.25,1.25,0,0,1,2.48-.28c.5,4.45-.26,7.71-2.28,9.7A7,7,0,0,1,68.34,94.87Z"/><path d="M87.58,88.27,86,88c-2.6-.45-15.65-2.94-17.07-7.68a1.25,1.25,0,0,1,2.39-.72c.65,2.16,7.88,4.48,13.44,5.62-.62-4.19-2.39-11.58-5.92-13.44A1.25,1.25,0,1,1,80,69.56c6.11,3.22,7.4,16.52,7.45,17.09Z"/><path d="M67.11,77.73a1.25,1.25,0,0,1-1.05-.57c0-.08-4.13-6.26-9.4-5.2a1.25,1.25,0,0,1-.49-2.45c6.94-1.39,11.78,6,12,6.3a1.25,1.25,0,0,1-1,1.93Z"/><path d="M67.48,52.49a1.24,1.24,0,0,1-.68-.2C59,47.2,54.14,50.77,54.1,50.81a1.25,1.25,0,0,1-1.52-2c.25-.19,6.3-4.68,15.58,1.37a1.25,1.25,0,0,1-.68,2.3Z"/><path d="M41.35,56.61a1.24,1.24,0,0,1-.88-.37l-4.55-4.56a3.61,3.61,0,0,1,0-5.11L46,36.51a3.62,3.62,0,0,1,5.11,0l4.58,4.58a1.25,1.25,0,0,1-1.77,1.77l-4.57-4.58a1.12,1.12,0,0,0-1.58,0L37.68,48.35a1.11,1.11,0,0,0,0,1.58l4.55,4.56a1.25,1.25,0,0,1-.88,2.13Z"/><path d="M38,47.52a1.24,1.24,0,0,1-.88-.37L34,44.06a2.74,2.74,0,0,1-.17-3.86l5.79-5.78a2.74,2.74,0,0,1,3.86.18l3.11,3.11a1.25,1.25,0,1,1-1.77,1.77L41.7,36.36a.43.43,0,0,0-.35-.16L35.58,42a.62.62,0,0,0,.18.33l3.09,3.09A1.25,1.25,0,0,1,38,47.52Z"/><text x="0" y="115" fill="#000000" font-size="5px" font-weight="bold" font-family="'Helvetica Neue', Helvetica, Arial-Unicode, Arial, Sans-serif">Created by Nicole Steffen</text><text x="0" y="120" fill="#000000" font-size="5px" font-weight="bold" font-family="'Helvetica Neue', Helvetica, Arial-Unicode, Arial, Sans-serif">from the Noun Project</text></svg>