<svg xmlns="http://www.w3.org/2000/svg" xmlns:xlink="http://www.w3.org/1999/xlink" version="1.1" x="0px" y="0px" viewBox="0 0 100 125" style="enable-background:new 0 0 100 100;" xml:space="preserve"><path d="M35.14,90h30.52c2.364,0,4.288-1.881,4.288-4.194V52.012c0-6.922-3.883-13.301-10.133-16.648  c-1.347-0.722-2.181-2.741-2.181-4.198c0-0.552-0.447-1-1-1c-0.005,0-0.01,0-0.015,0v-2.099c0-4.417,4.076-7.749,9.482-7.749  c0.553,0,1-0.448,1-1V11c0-0.552-0.447-1-1-1H39.625c-0.553,0-1,0.448-1,1v1.584h-4.477c-0.553,0-1,0.448-1,1v5.477  c0,0.552,0.447,1,1,1h4.477v0.993c0,0.552,0.447,1,1,1h4.587c-0.847,2.257-3.392,6.883-10.064,6.883c-0.553,0-1,0.448-1,1  s0.447,1,1,1c5.516,0,8.667-2.782,10.416-5.363v4.592h-0.022c-0.553,0-1,0.448-1,1c0,1.732-1.003,3.349-2.616,4.221  c-6.214,3.354-10.074,9.725-10.074,16.625v33.793C30.852,88.119,32.775,90,35.14,90z M67.791,53.402  c0.055,0,0.103-0.023,0.156-0.032v23.911H32.852V53.402H67.791z M65.659,88H35.14c-1.262,0-2.288-0.984-2.288-2.194v-6.524h35.096  v6.524C67.947,87.016,66.921,88,65.659,88z M35.148,18.062v-3.477h3.477v3.477H35.148z M46.546,20.961  c-0.007-0.069-0.02-0.133-0.04-0.198c-0.019-0.061-0.04-0.117-0.07-0.172c-0.03-0.057-0.065-0.107-0.106-0.157  c-0.041-0.05-0.083-0.095-0.132-0.137c-0.048-0.04-0.098-0.073-0.154-0.104c-0.06-0.033-0.12-0.059-0.186-0.08  c-0.031-0.01-0.055-0.031-0.088-0.038c-0.035-0.007-0.068,0.003-0.103-0.001c-0.035-0.004-0.066-0.021-0.103-0.021h-4.939V12h24.477  v6.353c-6.043,0.403-10.482,4.444-10.482,9.715v2.099h-8.055v-9.112C46.564,21.021,46.549,20.993,46.546,20.961z M41.876,37.147  c1.952-1.055,3.266-2.907,3.589-4.981h10.247c0.286,1.896,1.359,3.997,3.159,4.96c5.422,2.903,8.845,8.346,9.056,14.303  c-0.046-0.007-0.088-0.027-0.136-0.027H32.873C33.093,45.475,36.494,40.053,41.876,37.147z"/><text x="0" y="115" fill="#000000" font-size="5px" font-weight="bold" font-family="'Helvetica Neue', Helvetica, Arial-Unicode, Arial, Sans-serif">Created by Made by Made</text><text x="0" y="120" fill="#000000" font-size="5px" font-weight="bold" font-family="'Helvetica Neue', Helvetica, Arial-Unicode, Arial, Sans-serif">from the Noun Project</text></svg>