<svg xmlns="http://www.w3.org/2000/svg" xmlns:xlink="http://www.w3.org/1999/xlink" version="1.1" x="0px" y="0px" viewBox="0 0 100 125" style="enable-background:new 0 0 100 100;" xml:space="preserve"><rect x="13.8" y="70.3" width="28.8" height="2.5"/><rect x="47.2" y="70.3" width="8.9" height="2.5"/><path d="M93.7,50.7l-12.7-6.4v-5.9c0-2.6-2.1-4.7-4.7-4.7h-4.5l-4.8-16.1c-0.3-1.1-1.1-2.1-2.1-2.6c-1-0.5-2-0.6-3-0.2L7.7,33.8  C6,34.4,4.8,36.1,4.9,38c0,0.1,0,0.3,0,0.4v6.6v11.6V78c0,2.6,2.1,4.7,4.7,4.7h61.9c1.9,1.1,4.1,1.9,6.5,2.5c0.2,0,0.4,0.1,0.6,0.1  s0.4,0,0.6-0.1c15.7-3.6,15.9-17.6,15.9-17.7V52.9C95.1,52,94.6,51.1,93.7,50.7z M62.1,52.9v1.3H7.4v-6.6h62.3l-6.3,3.2  C62.6,51.1,62.1,52,62.1,52.9z M62.8,17.3c0.5-0.2,0.8,0,1.1,0.1c0.4,0.2,0.7,0.6,0.8,1.1l4.6,15.3h-54L62.8,17.3z M7.4,38.5  c0-0.1,0-0.1,0-0.3c0.1-1.1,1-1.9,2.2-1.9h63h3.8c1.2,0,2.2,1,2.2,2.2v4.9c-0.4,0-0.7,0.1-1.1,0.3l-2.8,1.4H7.4V38.5z M9.6,80.2  c-1.2,0-2.2-1-2.2-2.2V56.7h54.7v10.8c0,0,0,0.1,0,0.2c0,0,0,0.1,0,0.1c0,0.1,0,0.1,0,0.2c0,0.1,0,0.1,0,0.2c0,0.1,0,0.2,0,0.3  c0,0.1,0,0.2,0,0.2c0,0.1,0,0.3,0,0.4c0,0.1,0,0.2,0,0.3c0,0.2,0.1,0.3,0.1,0.5c0,0.1,0,0.2,0.1,0.3c0,0.2,0.1,0.4,0.1,0.7  c0,0.1,0,0.1,0.1,0.2c0.1,0.3,0.2,0.6,0.3,1c0,0.1,0.1,0.2,0.1,0.2c0.1,0.3,0.2,0.5,0.3,0.8c0,0.1,0.1,0.2,0.1,0.4  c0.1,0.2,0.2,0.5,0.3,0.7c0.1,0.1,0.1,0.3,0.2,0.4c0.1,0.2,0.2,0.5,0.4,0.7c0.1,0.1,0.2,0.3,0.2,0.4c0.1,0.2,0.3,0.5,0.4,0.7  c0.1,0.1,0.2,0.3,0.3,0.4c0.2,0.3,0.4,0.5,0.6,0.8c0.1,0.1,0.2,0.2,0.3,0.3c0.3,0.4,0.6,0.8,1,1.2c0,0,0,0,0,0c0.3,0.3,0.6,0.7,1,1  H9.6z M92.6,67.5c0,0.5-0.2,12.1-14,15.3l-0.1,0l0,0c-2.3-0.5-4.3-1.3-6.1-2.4c-7.7-4.6-7.9-12.6-7.9-12.9l0-10.8h0l0-3.7l14-7.1  l14,7V67.5z"/><polygon points="75.5,67.9 70.9,63.4 69.2,65.2 75.5,71.4 88.4,59.2 86.7,57.4 "/><text x="0" y="115" fill="#000000" font-size="5px" font-weight="bold" font-family="'Helvetica Neue', Helvetica, Arial-Unicode, Arial, Sans-serif">Created by Arfan Khan Kamol</text><text x="0" y="120" fill="#000000" font-size="5px" font-weight="bold" font-family="'Helvetica Neue', Helvetica, Arial-Unicode, Arial, Sans-serif">from the Noun Project</text></svg>