<svg xmlns="http://www.w3.org/2000/svg" data-name="Layer 1" viewBox="0 0 100 125" x="0px" y="0px"><title>05_collections</title><path d="M70.48,25.22V15.11a1,1,0,0,0-1-1H34.1a1,1,0,0,0-1,1v9a1,1,0,0,0,.29.71l7.47,7.47V38s0,0,0,0A15.31,15.31,0,0,0,29.52,52.83a1,1,0,0,0,2,0,13.31,13.31,0,0,1,13.3-13.3h6.66a13.31,13.31,0,0,1,13.3,13.3v6.93c-2.45-1.92-7.41-4-15.26.33-10.37,5.76-18.08.3-18.4,0.07a1,1,0,0,0-1.59.81V84.89a1,1,0,0,0,1,1H65.78a1,1,0,0,0,1-1V69.11a1,1,0,0,0-2,0V83.89H31.52V62.72c3.05,1.56,10.18,4,19-.88,10.08-5.6,14.28.63,14.45,0.89a1,1,0,0,0,1.84-.54V52.83a15.32,15.32,0,0,0-12-14.92V31.43l4.06-4.06c0.83,4.17,3.68,9.7,10.59,9.7a1,1,0,0,0,0-2c-6.75,0-8.37-6.29-8.75-8.85h8.75A1,1,0,0,0,70.48,25.22Zm-2-1H59.57a0.94,0.94,0,0,0-.14,0,1,1,0,0,0-.22.05,715,715,0,0,0-.3.2l-5.79,5.79a1,1,0,0,0-.29.71V37.6c-0.44,0-.89-0.07-1.34-0.07H44.82a15.29,15.29,0,0,0-2,.14v-5.8a1,1,0,0,0-.29-0.71L35.1,23.7V16.11H68.48v8.11Z"/><text x="0" y="115" fill="#000000" font-size="5px" font-weight="bold" font-family="'Helvetica Neue', Helvetica, Arial-Unicode, Arial, Sans-serif">Created by Hare Krishna</text><text x="0" y="120" fill="#000000" font-size="5px" font-weight="bold" font-family="'Helvetica Neue', Helvetica, Arial-Unicode, Arial, Sans-serif">from the Noun Project</text></svg>