<svg xmlns="http://www.w3.org/2000/svg" data-name="Layer 1" viewBox="0 0 48 60" x="0px" y="0px"><title>Cleaning_expand</title><path d="M47.982,14.729A10.584,10.584,0,0,0,45.31,8.038C41.6,3.774,32.421,1.359,26.155,4.633a29.3,29.3,0,0,0-3.9,2.47,13.46,13.46,0,0,1-6.312,2.826,20.935,20.935,0,0,1-2.242.221C9.856,10.415,3.42,10.857.73,15.684a7,7,0,0,0,.182,6.559,12.46,12.46,0,0,0,9.439,6.467,18.08,18.08,0,0,0,2.514.184,16.847,16.847,0,0,0,8.545-2.538,15.347,15.347,0,0,1,5.5-2.067,42.448,42.448,0,0,1,4.382-.161,38.273,38.273,0,0,0,9.746-.885.75.75,0,1,0-.408-1.444,37.193,37.193,0,0,1-9.348.829,43.386,43.386,0,0,0-4.556.172,16.787,16.787,0,0,0-6.026,2.232C18.062,26.44,15.329,27.9,10.56,27.225a10.906,10.906,0,0,1-8.3-5.649,5.535,5.535,0,0,1-.215-5.162C4.335,12.3,10.033,11.906,13.8,11.646a21.2,21.2,0,0,0,2.434-.247,15.008,15.008,0,0,0,6.9-3.081,28.25,28.25,0,0,1,3.718-2.356C32.526,3,40.825,5.174,44.179,9.023A8.717,8.717,0,0,1,46.41,15.97a6.953,6.953,0,0,1-3.556,4.917.75.75,0,0,0,.76,1.293A9.293,9.293,0,0,0,46.5,19.6v4.817a6.893,6.893,0,0,1-3.646,6.065c-2.869,1.688-7.692,1.718-11.568,1.741a43.652,43.652,0,0,0-4.555.172,18.863,18.863,0,0,0-5.965,2.013c-2.742,1.3-5.573,2.644-10.426,1.963-4.931-.7-8.793-4.445-8.793-8.537V25.425a.75.75,0,0,0-1.5,0v2.409c0,4.823,4.43,9.225,10.084,10.022a19.783,19.783,0,0,0,2.769.2,18.276,18.276,0,0,0,8.508-2.3,17.419,17.419,0,0,1,5.507-1.879,42.427,42.427,0,0,1,4.381-.161c4.056-.025,9.1-.056,12.318-1.948A8.341,8.341,0,0,0,48,24.417v-9.6A.683.683,0,0,0,47.982,14.729Z"/><path d="M6.933,18.661a2.457,2.457,0,0,0-.823,1.815c0,1.612,1.6,3,3.644,3.161q.191.015.378.015a3.783,3.783,0,0,0,2.583-.919,2.463,2.463,0,0,0,.822-1.816c0-1.611-1.6-3-3.642-3.161A3.879,3.879,0,0,0,6.933,18.661Zm4.8,2.256a.661.661,0,0,1-.242.49,2.17,2.17,0,0,1-1.592.429c-1.133-.089-1.979-.791-1.979-1.36a.66.66,0,0,1,.242-.489,2.052,2.052,0,0,1,1.366-.439q.114,0,.228.009C10.885,19.646,11.73,20.349,11.73,20.917Z"/><path d="M31.1,13.316a4.362,4.362,0,0,0-3.417.556,2.627,2.627,0,0,0-1.129,1.807c-.233,1.752,1.342,3.5,3.586,3.979a5.3,5.3,0,0,0,1.106.119,4,4,0,0,0,2.309-.674,2.635,2.635,0,0,0,1.13-1.807C34.918,15.543,33.343,13.8,31.1,13.316ZM33.2,17.1a1.125,1.125,0,0,1-.508.779,2.921,2.921,0,0,1-2.238.314c-1.432-.306-2.538-1.366-2.412-2.315a1.125,1.125,0,0,1,.508-.779A2.53,2.53,0,0,1,30,14.7a3.811,3.811,0,0,1,.79.086c1.434.306,2.537,1.366,2.411,2.315Z"/><path d="M17.85,12.417a2.717,2.717,0,0,0-1.674,1.364,1.774,1.774,0,0,0-.056,1.434,2.276,2.276,0,0,0,2.2,1.272,3.274,3.274,0,0,0,1-.157,2.715,2.715,0,0,0,1.674-1.365,1.77,1.77,0,0,0,.056-1.434A2.533,2.533,0,0,0,17.85,12.417Zm1.779,1.911a1.254,1.254,0,0,1-.771.572c-.674.213-1.249,0-1.347-.248a.272.272,0,0,1,.022-.233,1.251,1.251,0,0,1,.77-.573,1.816,1.816,0,0,1,.546-.087.871.871,0,0,1,.8.336A.271.271,0,0,1,19.629,14.328Z"/><path d="M37.322,12.193c.1.008.2.012.295.012a2.96,2.96,0,0,0,2.019-.72,1.945,1.945,0,0,0,.648-1.434A2.832,2.832,0,0,0,37.439,7.57a3.059,3.059,0,0,0-2.314.708,1.945,1.945,0,0,0-.648,1.434A2.833,2.833,0,0,0,37.322,12.193ZM36.144,9.379a1.5,1.5,0,0,1,1-.32c.057,0,.116,0,.176.006.837.066,1.462.575,1.462.986a.431.431,0,0,1-.167.333,1.6,1.6,0,0,1-1.178.314c-.836-.066-1.462-.575-1.462-.986A.431.431,0,0,1,36.144,9.379Z"/><path d="M9.866,33.728a1.9,1.9,0,0,0,.547-1.423,2.662,2.662,0,0,0-.941-1.875,2.5,2.5,0,0,0-3.391-.171,1.9,1.9,0,0,0-.547,1.42,2.664,2.664,0,0,0,.942,1.877,2.912,2.912,0,0,0,1.9.756A2.071,2.071,0,0,0,9.866,33.728Zm-2.4-1.3a1.191,1.191,0,0,1-.437-.8.4.4,0,0,1,.109-.314.594.594,0,0,1,.422-.141,1.436,1.436,0,0,1,.915.376,1.185,1.185,0,0,1,.435.8.409.409,0,0,1-.108.315C8.568,32.906,7.946,32.854,7.47,32.432Z"/><path d="M25.422,31.493a3.305,3.305,0,0,0,2.238-1.371c1.048-1.39,1.063-3.19.035-4.1a2.1,2.1,0,0,0-1.622-.5A3.306,3.306,0,0,0,23.836,26.9c-1.047,1.388-1.062,3.188-.034,4.1a2.063,2.063,0,0,0,1.385.513A2.326,2.326,0,0,0,25.422,31.493Zm-.389-3.7a1.872,1.872,0,0,1,1.191-.782c.03,0,.059,0,.088,0a.566.566,0,0,1,.389.136c.376.333.37,1.265-.238,2.072A1.868,1.868,0,0,1,25.272,30a.6.6,0,0,1-.476-.131C24.421,29.537,24.426,28.6,25.033,27.8Z"/><path d="M39.917,30.072a1.712,1.712,0,0,0,.285-.023,1.808,1.808,0,0,0,1.222-.806,2.759,2.759,0,0,0,.3-2.173,2.589,2.589,0,0,0-2.66-2.186,1.8,1.8,0,0,0-1.22.806,2.76,2.76,0,0,0-.3,2.175A2.678,2.678,0,0,0,39.917,30.072ZM39.1,26.52a.3.3,0,0,1,.21-.156.319.319,0,0,1,.045,0c.284,0,.753.386.919,1.062a1.3,1.3,0,0,1-.1.99.306.306,0,0,1-.21.156c-.28.041-.79-.346-.964-1.059A1.3,1.3,0,0,1,39.1,26.52Z"/><path d="M40.379,36.994a12.71,12.71,0,0,0-2.3-.229,7,7,0,0,1-2.907-.516,7.325,7.325,0,0,0-6.232-.051,2.933,2.933,0,0,0-1.394,3.436A3.1,3.1,0,0,0,30.5,41.41c.211.01.425.013.639.016a3.684,3.684,0,0,1,1.723.278,3.9,3.9,0,0,1,.53.39c.15.123.3.246.459.357a6.585,6.585,0,0,0,2.915.984,11.746,11.746,0,0,0,1.726.151,6,6,0,0,0,1.353-.144A4.016,4.016,0,0,0,42.6,41.377,3.112,3.112,0,0,0,42,37.71,3.576,3.576,0,0,0,40.379,36.994Zm.876,3.718a2.563,2.563,0,0,1-1.745,1.269,6.733,6.733,0,0,1-2.522-.03,5.3,5.3,0,0,1-2.273-.728c-.128-.089-.248-.189-.369-.288A5.094,5.094,0,0,0,33.6,40.4a4.925,4.925,0,0,0-2.438-.47c-.194,0-.389-.005-.58-.014-.317-.017-1.373-.124-1.637-.813a1.472,1.472,0,0,1,.743-1.6,4.307,4.307,0,0,1,2.115-.476,6.543,6.543,0,0,1,2.714.577,8.259,8.259,0,0,0,3.506.665,11.55,11.55,0,0,1,2.039.2,2.221,2.221,0,0,1,.966.389A1.654,1.654,0,0,1,41.255,40.712Z"/><path d="M21.149,40.036c-1.9,0-3.391,1.07-3.391,2.437s1.49,2.438,3.391,2.438,3.392-1.071,3.392-2.438S23.051,40.036,21.149,40.036Zm0,3.375c-1.154,0-1.891-.556-1.891-.938s.737-.937,1.891-.937,1.892.555,1.892.937S22.3,43.411,21.149,43.411Z"/><text x="0" y="63" fill="#000000" font-size="5px" font-weight="bold" font-family="'Helvetica Neue', Helvetica, Arial-Unicode, Arial, Sans-serif">Created by Koson Rattanaphan</text><text x="0" y="68" fill="#000000" font-size="5px" font-weight="bold" font-family="'Helvetica Neue', Helvetica, Arial-Unicode, Arial, Sans-serif">from the Noun Project</text></svg>