<svg xmlns="http://www.w3.org/2000/svg" xmlns:xlink="http://www.w3.org/1999/xlink" version="1.1" x="0px" y="0px" viewBox="0 0 512 640" enable-background="new 0 0 512 512" xml:space="preserve"><g><g><g><path d="M287.073,275.512H30c-3.313,0-6-2.687-6-6s2.687-6,6-6h257.073c3.313,0,6,2.687,6,6S290.387,275.512,287.073,275.512z"/></g><g><path d="M328.536,275.512h-8.292c-3.313,0-6-2.687-6-6s2.687-6,6-6h8.292c3.313,0,6,2.687,6,6S331.85,275.512,328.536,275.512z"/></g><g><path d="M129.512,242.341H88.049c-3.313,0-6-2.687-6-6v-45.609c0-14.739,11.992-26.731,26.731-26.731     c14.74,0,26.732,11.992,26.732,26.731v45.609C135.512,239.654,132.826,242.341,129.512,242.341z M94.049,230.341h29.463v-39.609     c0-8.123-6.609-14.731-14.732-14.731c-8.123,0-14.731,6.608-14.731,14.731V230.341z"/></g><g><path d="M369.998,294.469c-1.423,0-2.811-0.506-3.905-1.445c-1.33-1.14-2.095-2.804-2.095-4.555v-47.981     c0-17.268-14.049-31.317-31.317-31.317h-20.73c-3.313,0-6-2.687-6-6v-12.439c0-8.123-6.608-14.731-14.731-14.731     c-8.122,0-14.73,6.608-14.73,14.731v12.439c0,3.313-2.687,6-6,6H227.35c-2.546,0-4.814-1.606-5.66-4.008     C216.587,190.665,214,175.47,214,160c0-74.991,61.01-136,136-136s136,61.009,136,136c0,32.668-11.755,64.249-33.099,88.926     c-21.124,24.422-50.241,40.571-81.988,45.473C370.608,294.445,370.303,294.469,369.998,294.469z M317.95,197.171h14.73     c23.886,0,43.317,19.432,43.317,43.317v40.778C432.337,269.19,474,218.263,474,160c0-68.374-55.626-124-124-124     S226,91.626,226,160c0,12.689,1.908,25.174,5.675,37.171h32.813v-6.439c0-14.74,11.991-26.731,26.73-26.731     c14.74,0,26.731,11.991,26.731,26.731V197.171z"/></g><g><path d="M332.683,491.122H67.317C43.432,491.122,24,471.69,24,447.805V240.488c0-23.885,19.432-43.317,43.317-43.317h20.732     c3.314,0,6,2.686,6,6v27.17h29.463v-27.17c0-3.314,2.687-6,6-6h140.977c3.313,0,6,2.686,6,6v27.17h29.463v-27.17     c0-3.314,2.687-6,6-6h20.73c23.886,0,43.317,19.432,43.317,43.317v207.317C376,471.69,356.568,491.122,332.683,491.122z      M67.317,209.171C50.049,209.171,36,223.22,36,240.488v207.317c0,17.269,14.049,31.317,31.317,31.317h265.366     c17.269,0,31.317-14.049,31.317-31.317V240.488c0-17.268-14.049-31.317-31.317-31.317h-14.73v27.17c0,3.313-2.687,6-6,6h-41.463     c-3.313,0-6-2.687-6-6v-27.17H135.512v27.17c0,3.313-2.686,6-6,6H88.049c-3.313,0-6-2.687-6-6v-27.17H67.317z"/></g><g><path d="M311.951,242.341h-41.462c-3.313,0-6-2.687-6-6v-45.609c0-14.739,11.991-26.731,26.731-26.731     c14.739,0,26.73,11.992,26.73,26.731v45.609C317.951,239.654,315.265,242.341,311.951,242.341z M276.489,230.341h29.462v-39.609     c0-8.123-6.608-14.731-14.73-14.731c-8.123,0-14.731,6.608-14.731,14.731V230.341z"/></g><g><path d="M350,166c-1.173,0-2.332-0.344-3.328-1.008l-60-40c-2.757-1.838-3.502-5.563-1.664-8.32s5.563-3.503,8.32-1.664     l57.691,38.461l67.332-19.238c3.187-0.907,6.508,0.935,7.418,4.121c0.91,3.187-0.935,6.507-4.121,7.417l-70,20     C351.106,165.924,350.552,166,350,166z"/></g><g><path d="M110,376H80c-3.313,0-6-2.687-6-6v-30c0-3.313,2.687-6,6-6h30c3.313,0,6,2.687,6,6v30C116,373.313,113.313,376,110,376z      M86,364h18v-18H86V364z"/></g><g><path d="M180,376h-30c-3.313,0-6-2.687-6-6v-30c0-3.313,2.687-6,6-6h30c3.313,0,6,2.687,6,6v30C186,373.313,183.313,376,180,376z      M156,364h18v-18h-18V364z"/></g><g><path d="M250,376h-30c-3.313,0-6-2.687-6-6v-30c0-3.313,2.687-6,6-6h30c3.313,0,6,2.687,6,6v30C256,373.313,253.313,376,250,376z      M226,364h18v-18h-18V364z"/></g><g><path d="M320,376h-30c-3.313,0-6-2.687-6-6v-30c0-3.313,2.687-6,6-6h30c3.313,0,6,2.687,6,6v30C326,373.313,323.313,376,320,376z      M296,364h18v-18h-18V364z"/></g><g><path d="M110,446H80c-3.313,0-6-2.687-6-6v-30c0-3.313,2.687-6,6-6h30c3.313,0,6,2.687,6,6v30C116,443.313,113.313,446,110,446z      M86,434h18v-18H86V434z"/></g><g><path d="M250,446h-30c-3.313,0-6-2.687-6-6v-30c0-3.313,2.687-6,6-6h30c3.313,0,6,2.687,6,6v30C256,443.313,253.313,446,250,446z      M226,434h18v-18h-18V434z"/></g><g><path d="M320,446h-30c-3.313,0-6-2.687-6-6v-30c0-3.313,2.687-6,6-6h30c3.313,0,6,2.687,6,6v30C326,443.313,323.313,446,320,446z      M296,434h18v-18h-18V434z"/></g><g><path d="M157.5,446c-0.2,0-0.401-0.01-0.602-0.03c-1.669-0.168-3.192-1.027-4.199-2.37l-7.5-10     c-1.988-2.65-1.451-6.411,1.2-8.399c2.65-1.988,6.411-1.452,8.4,1.2l3.588,4.783l17.626-15.668     c2.476-2.201,6.269-1.98,8.471,0.498c2.202,2.477,1.979,6.27-0.498,8.471l-22.5,20C160.383,445.465,158.962,446,157.5,446z"/></g><g><path d="M160,106c-14.336,0-26-11.664-26-26s11.664-26,26-26s26,11.664,26,26S174.336,106,160,106z M160,66     c-7.72,0-14,6.28-14,14s6.28,14,14,14s14-6.28,14-14S167.72,66,160,66z"/></g><g><path d="M450,416c-19.851,0-36-16.149-36-36s16.149-36,36-36s36,16.149,36,36S469.851,416,450,416z M450,356     c-13.233,0-24,10.767-24,24s10.767,24,24,24s24-10.767,24-24S463.233,356,450,356z"/></g></g></g><text x="0" y="527" fill="#000000" font-size="5px" font-weight="bold" font-family="'Helvetica Neue', Helvetica, Arial-Unicode, Arial, Sans-serif">Created by Flatart</text><text x="0" y="532" fill="#000000" font-size="5px" font-weight="bold" font-family="'Helvetica Neue', Helvetica, Arial-Unicode, Arial, Sans-serif">from the Noun Project</text></svg>