<svg xmlns="http://www.w3.org/2000/svg" width="162.359" height="140.004" viewBox="0 0 162.359 140.004">
  <defs>
    <style>
      .cls-1 {
        fill: #112d4e;
      }
    </style>
  </defs>
  <g id="Group_73" data-name="Group 73" transform="translate(-762 -3020)">
    <path id="SprayBottle" class="cls-1" d="M169291.672,92919.9a1.8,1.8,0,1,0,0,3.6h3.469a1.827,1.827,0,0,0,1.828-1.812v-5.336a1.823,1.823,0,0,0-1.828-1.789h-3.469a1.8,1.8,0,1,0,0,3.6h1.672v1.734Zm-2.578,40.977a1.8,1.8,0,0,0-1.8-1.789,1.833,1.833,0,0,0-1.828,1.789v18.375h-18.156V92955.9h19.984a1.8,1.8,0,0,0,0-3.609h-21.766a1.787,1.787,0,0,0-1.8,1.8v26.953a1.8,1.8,0,0,0,1.8,1.813h21.766a1.8,1.8,0,0,0,1.8-1.812Zm-20.875-20.273a1.791,1.791,0,1,0-2.437-2.625l-.25.234c-3.906,3.727-8.531,8.078-8.531,15.063v32.641a6.009,6.009,0,0,0,1.781,4.3h0a6.1,6.1,0,0,0,4.281,1.789h26.656a6.058,6.058,0,0,0,4.3-1.789h0a6.052,6.052,0,0,0,1.828-4.3v-32.641c0-6.984-4.625-11.312-8.547-15.062a24.1,24.1,0,0,1-3.984-4.336v-4.289a13.371,13.371,0,0,0,9.453,4.414,1.787,1.787,0,0,0,1.781-1.812,1.767,1.767,0,0,0-1.781-1.789c-3.547,0-6.2-2.359-7.875-4.336h.25a3.794,3.794,0,0,0,2.7-1.1h0a3.886,3.886,0,0,0,1.125-2.687v-6.484a3.93,3.93,0,0,0-1.125-2.687h0a3.794,3.794,0,0,0-2.7-1.1h-22.234a3.684,3.684,0,0,0-2.656,1.1c-.094.063-.125.109-.125.148a3.7,3.7,0,0,0-1,2.539v8.484a1.769,1.769,0,0,0,1.5,1.766c3.234.875,5.531,1.813,6.969,3.109a5.8,5.8,0,0,1,1.875,4.766.863.863,0,0,0,.063.336v.039h0v.273a1.847,1.847,0,0,0,1.813,1.6h9.125a29.656,29.656,0,0,0,4.375,4.672c3.375,3.227,7.375,6.977,7.375,12.438v32.641a2.5,2.5,0,0,1-.75,1.75h0a2.493,2.493,0,0,1-1.75.734h-26.656a2.347,2.347,0,0,1-1.687-.734h-.062a2.509,2.509,0,0,1-.687-1.75v-32.641c0-5.461,3.938-9.211,7.344-12.437Zm1.75-14.141c-1.656-1.523-4.062-2.625-7.281-3.562v-7.109c0-.039.063-.078.063-.1v-.023a.266.266,0,0,1,.156-.062h22.234a.243.243,0,0,1,.172.063h0c.031.023.031.086.031.125v6.484a.232.232,0,0,1-.031.141h0a.346.346,0,0,1-.172.047h-3.672a1.787,1.787,0,0,0-1.781,1.813v8.266h-6.656A8.667,8.667,0,0,0,169269.969,92926.461Z" transform="translate(-168372.609 -89837.078)"/>
    <path id="Sponge" class="cls-1" d="M92941.453,149929.453a1.192,1.192,0,0,0,.477.609.577.577,0,0,0,.484.109h.039c.07,0,.109-.094.148-.125a1,1,0,0,0,.031-.437,1.077,1.077,0,0,0-.062-.156,1.133,1.133,0,0,0-.469-.594.639.639,0,0,0-.484-.156h-.062a.391.391,0,0,0-.141.156.8.8,0,0,0-.016.438A1.077,1.077,0,0,1,92941.453,149929.453Zm-27.656-7.562v1.172a8.587,8.587,0,0,0,2.719,6.266,9.844,9.844,0,0,0,6.813,2.266,17.533,17.533,0,0,0,6.281-.859c1.477-.531,2.516-.875,5.961-.125.172.031.922.219,1.641.375,4.758,1.094,7.336,1.672,11.063-.812a3.66,3.66,0,0,0,1.25-1.344,5.1,5.1,0,0,0,.492-2h0v-.187h0v-.172h0v-2.406a8.39,8.39,0,0,1-.758.578.853.853,0,0,1-1.219-.25.874.874,0,0,1,.234-1.219,3.846,3.846,0,0,0,1.531-2.094,4.623,4.623,0,0,0,.211-1.219v-.125a6.991,6.991,0,0,0-.148-1.469,8.988,8.988,0,0,0-1.312-3.094,11.206,11.206,0,0,0-6.016-4.437c-4.141-1.266-6.766-.187-9.273.828a13.148,13.148,0,0,1-6.562,1.359c-.992-.125-1.945-.281-2.922-.406h-.016c-3.312-.5-6.7-1.016-8.523.625a.888.888,0,1,1-1.2-1.312c2.453-2.219,6.25-1.641,10-1.094h0c.969.156,1.953.281,2.836.406a11.717,11.717,0,0,0,5.711-1.25c2.8-1.125,5.727-2.312,10.477-.844a12.618,12.618,0,0,1,6.969,5.125,10.6,10.6,0,0,1,1.594,3.75,9.485,9.485,0,0,1,.18,1.859v6.688h0v.172h0v.188h0v.063h0a6.626,6.626,0,0,1-.7,2.75,5.428,5.428,0,0,1-1.859,2.031c-4.359,2.891-7.2,2.25-12.445,1.063-.32-.078-.648-.156-1.617-.375-2.977-.656-3.8-.375-5.023.063a19.128,19.128,0,0,1-6.844.969,11.5,11.5,0,0,1-8.023-2.75,10.353,10.353,0,0,1-3.3-7.578v-7.047a.9.9,0,0,1,1.8,0,8.6,8.6,0,0,0,2.719,6.281,9.7,9.7,0,0,0,6.813,2.281,16.811,16.811,0,0,0,6.281-.906c1.477-.484,2.516-.844,5.961-.094.172.031.922.219,1.641.375,3.5.8,5.844,1.328,8.234.594a.944.944,0,0,1,1.125.594.957.957,0,0,1-.609,1.141c-2.844.844-5.375.266-9.148-.578-.32-.094-.648-.125-1.617-.375-2.977-.625-3.8-.375-5.023.063a19.128,19.128,0,0,1-6.844.969,11.57,11.57,0,0,1-8.023-2.75A8.884,8.884,0,0,1,92913.8,149921.891Zm38.016,5Zm-31.828-9.375a1.984,1.984,0,0,0,1.125-.562,1.156,1.156,0,0,0,.4-.812v-.094a.589.589,0,0,0-.242-.391,1.344,1.344,0,0,0-.711-.187c-.117,0-.2.031-.289.031a2.172,2.172,0,0,0-1.141.547,1.313,1.313,0,0,0-.391.828v.109a.754.754,0,0,0,.25.375,1.217,1.217,0,0,0,.711.2A1.717,1.717,0,0,0,92919.984,149917.516Zm2.391.719a4.269,4.269,0,0,1-2.109,1.063c-.211,0-.4.031-.57.031a2.984,2.984,0,0,1-1.758-.531,2.353,2.353,0,0,1-.969-1.562,1.934,1.934,0,0,1-.023-.359,2.982,2.982,0,0,1,.93-2.094,4.007,4.007,0,0,1,2.109-1.047,1.926,1.926,0,0,1,.57-.062,2.77,2.77,0,0,1,1.758.563,2.346,2.346,0,0,1,.969,1.531c.008.125.016.281.016.375A2.974,2.974,0,0,1,92922.375,149918.234Zm15.2-1.687a2.606,2.606,0,0,0,1.188-1.047,1.6,1.6,0,0,0,.219-1.219.627.627,0,0,0-.031-.141.917.917,0,0,0-.5-.437h0a1.56,1.56,0,0,0-1,0,3.155,3.155,0,0,0-.352.125,2.761,2.761,0,0,0-1.2,1.094,1.576,1.576,0,0,0-.219,1.188.529.529,0,0,0,.047.125.835.835,0,0,0,.508.453h.023a1.466,1.466,0,0,0,.969,0A1.448,1.448,0,0,0,92937.57,149916.547Zm2.758-.187a4.611,4.611,0,0,1-2.008,1.844c-.211.063-.422.156-.609.219a3.63,3.63,0,0,1-2.047-.031h-.039a2.907,2.907,0,0,1-1.516-1.375c-.062-.172-.1-.3-.141-.406a3.45,3.45,0,0,1,.375-2.594,4.5,4.5,0,0,1,1.992-1.812,1.819,1.819,0,0,1,.625-.219,3.19,3.19,0,0,1,2.094.031h0a2.574,2.574,0,0,1,1.516,1.391c.047.109.1.266.141.391A3.421,3.421,0,0,1,92940.328,149916.359Zm-12.508,4.3a1.476,1.476,0,0,0,.914-.172.819.819,0,0,0,.391-.437v-.031l.016-.031h0a.24.24,0,0,0-.078-.2.657.657,0,0,0-.422-.234.515.515,0,0,0-.2-.062,1.766,1.766,0,0,0-.914.188.746.746,0,0,0-.391.422v.078h0a.24.24,0,0,0,.063.219.906.906,0,0,0,.422.234A.445.445,0,0,0,92927.82,149920.656Zm1.789,1.391a3.438,3.438,0,0,1-1.953.406c-.187-.031-.352-.062-.5-.094a2.618,2.618,0,0,1-1.344-.844,1.941,1.941,0,0,1-.461-1.5v-.047a.783.783,0,0,1,.039-.266.162.162,0,0,0,.016-.062,2.528,2.528,0,0,1,1.25-1.531,3.308,3.308,0,0,1,1.953-.391,1.637,1.637,0,0,1,.5.078,2.5,2.5,0,0,1,1.344.844,2.056,2.056,0,0,1,.477,1.5l-.016.031a.874.874,0,0,1-.039.281s0,.031-.016.031A2.575,2.575,0,0,1,92929.609,149922.047Zm13.789-1.969a1.56,1.56,0,0,0,.859-.453.925.925,0,0,0,.289-.578v-.094c-.016-.078-.078-.125-.164-.2a.885.885,0,0,0-.5-.141h-.016c-.047,0-.125.031-.2.031a1.655,1.655,0,0,0-.859.422.9.9,0,0,0-.3.609.156.156,0,0,0,.016.063.263.263,0,0,0,.141.2.96.96,0,0,0,.516.156C92943.242,149920.094,92943.32,149920.078,92943.4,149920.078Zm2.141.813a3.689,3.689,0,0,1-1.859.953c-.164,0-.328.031-.5.031a2.633,2.633,0,0,1-1.562-.484,2.061,2.061,0,0,1-.875-1.375c-.016-.109-.016-.234-.031-.344a2.582,2.582,0,0,1,.82-1.844,3.615,3.615,0,0,1,1.836-.953,2.688,2.688,0,0,1,.5-.031,2.811,2.811,0,0,1,1.563.453,2.117,2.117,0,0,1,.875,1.344l.016.031a2.888,2.888,0,0,1,.016.375A2.678,2.678,0,0,1,92945.539,149920.891Zm-27.523,7.156a1.052,1.052,0,0,0,.516-.094c.109-.094.172-.125.2-.219v-.031h-.016a.373.373,0,0,0-.211-.125h-.016a.123.123,0,0,0-.094-.031.971.971,0,0,0-.516.125.282.282,0,0,0-.18.188h-.016a.162.162,0,0,1,.016.063.64.64,0,0,0,.211.109h.023A.141.141,0,0,1,92918.016,149928.047Zm1.25,1.2a2.593,2.593,0,0,1-1.391.281,1.007,1.007,0,0,1-.312-.047l-.031-.031a1.751,1.751,0,0,1-.984-.594,1.528,1.528,0,0,1-.344-1.156,1.154,1.154,0,0,1,.031-.187c0-.016.016-.016.016-.047a1.844,1.844,0,0,1,.891-1.109,2.294,2.294,0,0,1,1.406-.281.846.846,0,0,1,.3.047h.047a1.79,1.79,0,0,1,.984.641,1.417,1.417,0,0,1,.336,1.094.771.771,0,0,1-.023.219c0,.031-.016.031-.016.031A2.007,2.007,0,0,1,92919.266,149929.25Zm11.055-.672a1.4,1.4,0,0,0,.773-.5.827.827,0,0,0,.242-.609s0-.016-.008-.078h0a.337.337,0,0,0-.187-.2,1.01,1.01,0,0,0-.516-.109,1.467,1.467,0,0,0-.227.047,1.435,1.435,0,0,0-.789.516.889.889,0,0,0-.242.578c.016.016.016.047.031.078l.008.016a.31.31,0,0,0,.172.219.812.812,0,0,0,.531.078C92930.172,149928.609,92930.234,149928.578,92930.32,149928.578Zm1.93.484a3,3,0,0,1-1.578.953,1.348,1.348,0,0,1-.437.063,2,2,0,0,1-1.422-.281,1.7,1.7,0,0,1-.844-1.062c-.016-.031-.031-.031-.031-.062-.008-.094-.039-.187-.047-.328a2.444,2.444,0,0,1,.578-1.7,3.119,3.119,0,0,1,1.578-.969,1.777,1.777,0,0,1,.43-.062,2.349,2.349,0,0,1,1.414.281,1.948,1.948,0,0,1,.891,1.156h0a1.574,1.574,0,0,1,.031.3A2.351,2.351,0,0,1,92932.25,149929.063Zm8.852,2.219a2.782,2.782,0,0,1-1.172-1.7,2.057,2.057,0,0,1,.141-1.312,1.66,1.66,0,0,1,.953-.953c.094-.031.188-.047.273-.078a2.12,2.12,0,0,1,1.625.375,2.645,2.645,0,0,1,1.055,1.281,2.709,2.709,0,0,1,.109.406,2.165,2.165,0,0,1-.125,1.344,1.7,1.7,0,0,1-.977.938c-.078.016-.172.047-.258.063A2.034,2.034,0,0,1,92941.1,149931.281Z" transform="translate(150825.813 -89882.109) rotate(90)"/>
    <path id="DustPan" class="cls-1" d="M118112.641,92941.727h27.547v-2.367a2.387,2.387,0,0,0-2.367-2.375h-22.8a2.338,2.338,0,0,0-1.672.7,2.389,2.389,0,0,0-.7,1.672Zm17.453-9.508a1.1,1.1,0,0,1-2.2,0v-16.555a1.494,1.494,0,0,0-1.469-1.477h0a1.446,1.446,0,0,0-1.039.445,1.474,1.474,0,0,0-.445,1.031v19.133h12.883a4.561,4.561,0,0,1,4.563,4.563v3.336l4.414,16.563a1.1,1.1,0,0,1-.781,1.336,1.111,1.111,0,0,1-.281.039h-8.406a1.1,1.1,0,1,1,0-2.2h6.992l-3.875-14.516h-28.891a1.1,1.1,0,0,1-1.1-1.1v-3.461a4.575,4.575,0,0,1,4.563-4.562h7.734v-19.133a3.668,3.668,0,0,1,3.672-3.656h0a3.681,3.681,0,0,1,3.672,3.656Zm3.9,22.672a1.1,1.1,0,0,1,2.141.484l-1,4.4a1.078,1.078,0,0,1-1.062.859h-14.273a1.1,1.1,0,0,1-1.086-.937l-.422-1.891-.453,1.969a1.082,1.082,0,0,1-1.055.859h-9.687a1.1,1.1,0,0,1-1.086-1.094,1.169,1.169,0,0,1,.063-.367l3.461-13.016a1.1,1.1,0,0,1,2.125.555l-3.125,11.727h7.383l1.3-5.8a1.1,1.1,0,0,1,2.141-.016l1.313,5.82h12.523Z" transform="translate(-117279.008 -89891.125)"/>
    <path id="Broom" class="cls-1" d="M176462.906,42970.188a2.4,2.4,0,0,1-2.406,2.391,2.356,2.356,0,0,1-2.344-2.391l-.062-52.062h0a1.226,1.226,0,0,0-.375-.937,1.341,1.341,0,0,0-.922-.391h0a1.379,1.379,0,0,0-.937.391,1.275,1.275,0,0,0-.391.938h0v56.383h6.453a4.268,4.268,0,0,1,4.266,4.273v5.57a2.416,2.416,0,0,1-2.406,2.4h-13.766a17.444,17.444,0,0,0-5.859,2.234,14.04,14.04,0,0,0-6.078,8.32,21.993,21.993,0,0,0-.359,9.773,13.386,13.386,0,0,0,1.5,4.266c1.938,3.133,2.922,8.109,3.141,12.914.266,5.711-.562,11.43-2.078,13.641a27.315,27.315,0,0,1-1.719,2.266,9.746,9.746,0,0,0,3.516.383,4.968,4.968,0,0,0,2.359-.984,12.458,12.458,0,0,0,2.219-2.164,17.428,17.428,0,0,1-.031-8.328,2.363,2.363,0,0,1,2.844-1.758,2.4,2.4,0,0,1,1.8,2.875,13.4,13.4,0,0,0,.172,6.781c.063.18.109.359.156.531a24.076,24.076,0,0,0,5.2,8.711c2.563-2.867,7.2-9.187,5.516-16.023a2.387,2.387,0,0,1,4.641-1.117c2.953,12.086-8.531,22.281-8.578,22.313a2.4,2.4,0,0,1-3.219,0,33.376,33.376,0,0,1-6.672-8.977,13.333,13.333,0,0,1-1.266,1.016,9.458,9.458,0,0,1-4.75,1.891,16.023,16.023,0,0,1-9.516-2.547,2.37,2.37,0,0,1-.609-3.312,2.617,2.617,0,0,1,.828-.758h0s1.2-.633,3.172-3.492c.984-1.422,1.469-5.922,1.25-10.727-.219-4.086-.969-8.211-2.453-10.609a17.747,17.747,0,0,1-2.094-5.9,26.507,26.507,0,0,1,.438-11.953,18.491,18.491,0,0,1,8.141-11.109,22.3,22.3,0,0,1,5.766-2.461v-3.664a4.291,4.291,0,0,1,1.25-3.016l.016-.008a4.4,4.4,0,0,1,2.016-1.141v-56.492h0a6.148,6.148,0,0,1,6.125-6.125h0a6.2,6.2,0,0,1,4.328,1.8,6.126,6.126,0,0,1,1.781,4.32h0Zm5.891,74.648a6.457,6.457,0,0,0,2.109.477,16.042,16.042,0,0,0,9.563-2.547,2.367,2.367,0,0,0,.594-3.312,2.159,2.159,0,0,0-.812-.758h0s-1.25-.633-3.156-3.492c-.984-1.422-1.5-5.922-1.281-10.727.219-4.086.969-8.211,2.469-10.609a17.406,17.406,0,0,0,2.094-5.9,26.507,26.507,0,0,0-.437-11.953,18,18,0,0,0-3.906-7.437c-6.016-6.523-8.844-.8-3.641,3.086,1.766,1.313,2.391,3.625,2.953,5.641a21.753,21.753,0,0,1,.344,9.773,12.663,12.663,0,0,1-1.5,4.266c-1.922,3.133-2.891,8.109-3.109,12.914-.3,5.711.547,11.43,2.016,13.641a27.065,27.065,0,0,0,1.75,2.266,9.788,9.788,0,0,1-3.516.383C176467.906,43038.828,176465.2,43043.234,176468.8,43044.836Zm5.031-43.078a2.4,2.4,0,0,1-4.8.258,9.175,9.175,0,0,0-1.953-4.8,10.941,10.941,0,0,0-4.391-3.641,2.387,2.387,0,0,1,1.719-4.453,16.154,16.154,0,0,1,6.5,5.227A13.853,13.853,0,0,1,176473.828,43001.758Zm-21.891,18.242a2.374,2.374,0,0,1-2.359,2.391,2.4,2.4,0,0,1-2.406-2.391c0-7.719-2.25-11.789-2.266-11.8a2.392,2.392,0,0,1,4.234-2.227C176449.141,43005.992,176451.938,43011.039,176451.938,43020Zm9.438-40.7h-9.172v2.648h9.172Z" transform="translate(-175669.922 -39892)"/>
    <g id="Bucket" transform="translate(815 3073.59)">
      <g id="Group_34" data-name="Group 34">
        <path id="Path_61" data-name="Path 61" class="cls-1" d="M14.953,37.518V48.3a1.861,1.861,0,0,0,1.86,1.86h2.96L22.921,84.3a5.421,5.421,0,0,0,5.423,4.946H61.773A5.419,5.419,0,0,0,67.194,84.3l.306-3.319a13.092,13.092,0,0,0,4.574-1.6c7.439-4.294,9.471-15.58,4.828-26.835a1.86,1.86,0,1,0-3.439,1.419c3.921,9.509,2.555,18.843-3.25,22.194-3.162,1.826-7.276,1.671-11.585-.438A28.631,28.631,0,0,1,46.907,64.194a33.648,33.648,0,0,1-1.632-3.228h3.094a1.861,1.861,0,0,0,0-3.721H36.681a1.86,1.86,0,1,0,0,3.721h4.565a37.091,37.091,0,0,0,2.439,5.088,32.361,32.361,0,0,0,13.309,13.01,19.882,19.882,0,0,0,6.762,2l-.266,2.888a1.718,1.718,0,0,1-1.718,1.566H28.343a1.716,1.716,0,0,1-1.717-1.566l-3.116-33.8H36.683a1.861,1.861,0,0,0,0-3.721H18.675V39.378H33.41l7.96.016v1.022A6.206,6.206,0,0,0,50.063,46.1v5.772a6.623,6.623,0,1,0,13.246,0V39.437l8.132.016v6.983H65.79a1.861,1.861,0,0,0,0,3.721h.817L64.528,72.7a1.859,1.859,0,0,0,1.682,2.023,1.68,1.68,0,0,0,.173.007,1.86,1.86,0,0,0,1.85-1.689l2.111-22.888H73.3a1.861,1.861,0,0,0,1.86-1.86V37.518a1.857,1.857,0,0,0-1.244-1.748A9.822,9.822,0,0,0,74,34.531a9.7,9.7,0,0,0-12.9-9.155,12.6,12.6,0,0,0-19.227-3.312,15.364,15.364,0,0,0-8.589-2.641,15.18,15.18,0,0,0-6.921,1.647,1.86,1.86,0,0,0,1.682,3.319,11.489,11.489,0,0,1,5.24-1.246,11.668,11.668,0,0,1,7.547,2.794,1.862,1.862,0,0,0,2.606-.193A8.884,8.884,0,0,1,58.469,28.5a1.86,1.86,0,0,0,2.709.939,5.407,5.407,0,0,1,.914-.454,1.708,1.708,0,0,0,.158-.068,5.878,5.878,0,0,1,2.049-.366,5.971,5.971,0,0,1,5.878,7.1H61.45a1.861,1.861,0,0,0-1.86,1.86q0,.013,0,.027V51.871a2.9,2.9,0,0,1-5.8,0V40.416a1.861,1.861,0,1,0-3.721,0,2.486,2.486,0,1,1-4.973,0v-2.9a1.861,1.861,0,0,0-1.86-1.86H33.4l-11.709-.022q-.031-.427-.031-.859a11.526,11.526,0,0,1,1.1-4.951,11.681,11.681,0,0,1,1.154-1.937,1.862,1.862,0,1,0-3-2.2,15.3,15.3,0,0,0-2.982,9.094c0,.3.027.588.043.881H16.816a1.862,1.862,0,0,0-1.863,1.858Z" transform="translate(-14.953 -6.422)"/>
        <path id="Path_62" data-name="Path 62" class="cls-1" d="M66.443,15.547A6.248,6.248,0,0,0,60.923,18a1.86,1.86,0,0,0,2.96,2.254,2.561,2.561,0,0,1,4.591,1.758,1.86,1.86,0,0,0,1.7,2.008c.053,0,.1.007.156.007a1.861,1.861,0,0,0,1.852-1.706,6.278,6.278,0,0,0-5.736-6.778Z" transform="translate(-18.138 -6.181)"/>
        <path id="Path_63" data-name="Path 63" class="cls-1" d="M50.072,11.67a6.191,6.191,0,1,0-6.191,6.191,6.191,6.191,0,0,0,6.191-6.191Zm-8.662,0a2.47,2.47,0,1,1,2.47,2.47,2.47,2.47,0,0,1-2.47-2.47Z" transform="translate(-16.541 -5.479)"/>
        <path id="Path_64" data-name="Path 64" class="cls-1" d="M77.926,17.862a6.191,6.191,0,1,0-6.191-6.191,6.191,6.191,0,0,0,6.191,6.191Zm0-8.662a2.47,2.47,0,1,1-2.47,2.47,2.47,2.47,0,0,1,2.47-2.47Z" transform="translate(-18.92 -5.479)"/>
        <path id="Path_65" data-name="Path 65" class="cls-1" d="M20.276,20.813a1.633,1.633,0,0,0,.223.279,1.906,1.906,0,0,0,1.321.549,2.4,2.4,0,0,0,.363-.037,2.125,2.125,0,0,0,.344-.112,2.152,2.152,0,0,0,.326-.167,1.684,1.684,0,0,0,.279-.233,1.325,1.325,0,0,0,.233-.279,2.2,2.2,0,0,0,.177-.326,1.467,1.467,0,0,0,.1-.344,1.6,1.6,0,0,0,.037-.363,2.043,2.043,0,0,0-.14-.716,2.109,2.109,0,0,0-.177-.316,1.376,1.376,0,0,0-.233-.288,2.311,2.311,0,0,0-.279-.233,2.152,2.152,0,0,0-.326-.167,1.467,1.467,0,0,0-.344-.1,1.9,1.9,0,0,0-1.684.5,1.7,1.7,0,0,0-.223.288,1.519,1.519,0,0,0-.177.316,2.043,2.043,0,0,0-.14.716,1.6,1.6,0,0,0,.037.363,1.467,1.467,0,0,0,.1.344A1.585,1.585,0,0,0,20.276,20.813Z" transform="translate(-15.303 -6.348)"/>
        <path id="Path_66" data-name="Path 66" class="cls-1" d="M61.361,10.5a2.076,2.076,0,0,0-.4-.6,1.908,1.908,0,0,0-1.684-.512,2.47,2.47,0,0,0-.344.112,2.2,2.2,0,0,0-.326.167,1.684,1.684,0,0,0-.279.233,1.64,1.64,0,0,0-.233.279,2.247,2.247,0,0,0-.168.326,2.468,2.468,0,0,0-.112.344,2.4,2.4,0,0,0-.036.363,1.889,1.889,0,0,0,.549,1.321,2.241,2.241,0,0,0,.279.233,2.109,2.109,0,0,0,.326.167,1.94,1.94,0,0,0,.708.14,1.842,1.842,0,0,0,1.86-1.86,1.915,1.915,0,0,0-.14-.707Z" transform="translate(-17.945 -5.75)"/>
      </g>
    </g>
  </g>
</svg>
