<svg id="noun_cleaning_1530751" xmlns="http://www.w3.org/2000/svg" width="121.42" height="121.428" viewBox="0 0 121.42 121.428">
  <path id="Path_31" data-name="Path 31" d="M36.146,10a21.189,21.189,0,1,0,21.2,21.187A21.22,21.22,0,0,0,36.146,10Zm0,39.4A18.207,18.207,0,1,1,54.368,31.187,18.235,18.235,0,0,1,36.146,49.4Z" transform="translate(-7.577 -10)" fill="#112d4e"/>
  <path id="Path_32" data-name="Path 32" d="M10,61.966A13.784,13.784,0,1,0,23.784,48.191,13.794,13.794,0,0,0,10,61.966ZM23.784,51.171a10.795,10.795,0,1,1-10.8,10.795A10.811,10.811,0,0,1,23.784,51.171Z" transform="translate(-10 10.09)" fill="#112d4e"/>
  <path id="Path_33" data-name="Path 33" d="M16.7,60.9a1.49,1.49,0,0,0,1.49-1.49,3.041,3.041,0,0,1,3.04-3.035,1.49,1.49,0,1,0,0-2.98,6.025,6.025,0,0,0-6.02,6.016A1.49,1.49,0,0,0,16.7,60.9Z" transform="translate(-7.446 12.55)" fill="#112d4e"/>
  <path id="Path_34" data-name="Path 34" d="M30.71,15.953a9.767,9.767,0,0,0-9.758,9.753,1.49,1.49,0,1,0,2.98,0,6.784,6.784,0,0,1,6.777-6.773,1.49,1.49,0,1,0,0-2.98Z" transform="translate(-4.632 -7.082)" fill="#112d4e"/>
  <path id="Path_35" data-name="Path 35" d="M96.3,68.683A27.942,27.942,0,1,0,69.308,89.407c.712,0,1.428-.054,2.141-.109,0,.079-.012.155-.012.232A21.2,21.2,0,1,0,96.3,68.683ZM69.308,86.428A24.979,24.979,0,1,1,93.293,68.379c-.219-.006-.435-.033-.656-.033A21.212,21.212,0,0,0,71.708,86.307C70.914,86.382,70.108,86.428,69.308,86.428Zm23.331,21.311a18.207,18.207,0,1,1,18.222-18.205A18.233,18.233,0,0,1,92.639,107.739Z" transform="translate(7.579 3.752)" fill="#112d4e"/>
  <path id="Path_36" data-name="Path 36" d="M77.31,62.854a9.766,9.766,0,0,0-9.758,9.752,1.49,1.49,0,1,0,2.98,0,6.782,6.782,0,0,1,6.777-6.771,1.49,1.49,0,1,0,0-2.98Z" transform="translate(19.963 17.517)" fill="#112d4e"/>
  <path id="Path_37" data-name="Path 37" d="M66.151,39.186A18.366,18.366,0,0,0,47.8,57.525a1.49,1.49,0,0,0,2.98,0A15.382,15.382,0,0,1,66.151,42.166a1.49,1.49,0,0,0,0-2.98Z" transform="translate(9.779 5.272)" fill="#112d4e"/>
  <path id="Path_38" data-name="Path 38" d="M44.687,63.61l-2.624,4.8A26.943,26.943,0,0,1,31.329,79.131l-4.8,2.624a1.489,1.489,0,0,0,0,2.615l4.8,2.623A26.921,26.921,0,0,1,42.061,97.718l2.624,4.8a1.493,1.493,0,0,0,2.617,0l2.626-4.8A26.93,26.93,0,0,1,60.66,86.992l4.8-2.623a1.491,1.491,0,0,0,0-2.617l-4.8-2.624A26.936,26.936,0,0,1,49.928,68.405l-2.626-4.8A1.552,1.552,0,0,0,44.687,63.61Zm2.627,6.227A29.917,29.917,0,0,0,59.231,81.745l2.407,1.316-2.407,1.314A29.911,29.911,0,0,0,47.314,96.285L46,98.691l-1.317-2.407A29.914,29.914,0,0,0,32.76,84.375l-2.407-1.314,2.407-1.316A29.92,29.92,0,0,0,44.678,69.837L46,67.429Z" transform="translate(-1.62 18.133)" fill="#112d4e"/>
  <path id="Path_39" data-name="Path 39" d="M53.643,27a12.361,12.361,0,0,1,4.92,4.918l1.277,2.334a1.489,1.489,0,0,0,2.614,0l1.277-2.332A12.335,12.335,0,0,1,68.65,27l2.337-1.276a1.491,1.491,0,0,0,0-2.617L68.65,21.834a12.363,12.363,0,0,1-4.919-4.916l-1.277-2.334a1.489,1.489,0,0,0-2.614,0l-1.277,2.334a12.354,12.354,0,0,1-4.919,4.916l-2.335,1.276a1.491,1.491,0,0,0,0,2.617Zm7.5-8.6a15.316,15.316,0,0,0,6.017,6.014,15.325,15.325,0,0,0-6.017,6.014,15.316,15.316,0,0,0-6.017-6.014A15.335,15.335,0,0,0,61.147,18.4Z" transform="translate(11.228 -8.133)" fill="#112d4e"/>
  <path id="Path_40" data-name="Path 40" d="M28.995,83.56a13,13,0,0,1-5.184-5.183l-1.34-2.448a1.549,1.549,0,0,0-2.615,0l-1.338,2.447a13.02,13.02,0,0,1-5.186,5.183L10.883,84.9a1.49,1.49,0,0,0,0,2.615l2.45,1.34a13.011,13.011,0,0,1,5.186,5.183l1.338,2.447a1.489,1.489,0,0,0,2.614,0l1.34-2.447a13.024,13.024,0,0,1,5.186-5.184l2.448-1.338a1.49,1.49,0,0,0,0-2.615Zm-1.429,2.676A15.988,15.988,0,0,0,21.2,92.6l-.033.06-.031-.06a15.975,15.975,0,0,0-6.37-6.364l-.057-.031.055-.03a16,16,0,0,0,6.372-6.367l.031-.058.031.06a15.988,15.988,0,0,0,6.37,6.366l.055.03Z" transform="translate(-9.948 24.171)" fill="#112d4e"/>
  <path id="Path_41" data-name="Path 41" d="M99.525,24.32,95.9,22.341a20,20,0,0,1-7.963-7.96l-1.983-3.626a1.552,1.552,0,0,0-2.615,0L81.352,14.38a19.988,19.988,0,0,1-7.965,7.959L69.76,24.32a1.491,1.491,0,0,0,0,2.617l3.627,1.98a20.011,20.011,0,0,1,7.965,7.96L83.336,40.5a1.491,1.491,0,0,0,2.615,0l1.983-3.624A19.988,19.988,0,0,1,95.9,28.917l3.627-1.982a1.49,1.49,0,0,0,0-2.615ZM94.47,26.3a22.966,22.966,0,0,0-9.15,9.142l-.677,1.235-.677-1.235a22.979,22.979,0,0,0-9.15-9.144l-1.232-.674,1.234-.674a22.966,22.966,0,0,0,9.15-9.142l.677-1.237.677,1.237a22.979,22.979,0,0,0,9.15,9.144l1.232.672Z" transform="translate(21.119 -9.981)" fill="#112d4e"/>
</svg>
