<svg id="noun_Clean_1683608" xmlns="http://www.w3.org/2000/svg" width="71.515" height="90.847" viewBox="0 0 71.515 90.847">
  <g id="Group_35" data-name="Group 35" transform="translate(0 0)">
    <g id="Group_34" data-name="Group 34">
      <path id="Path_61" data-name="Path 61" d="M14.953,39.756V51.834A2.065,2.065,0,0,0,17,53.919h3.25L23.7,92.18a6,6,0,0,0,5.955,5.542H66.37a6,6,0,0,0,5.954-5.542l.336-3.719a14.189,14.189,0,0,0,5.024-1.789c8.17-4.813,10.4-17.46,5.3-30.074a2.028,2.028,0,0,0-2.667-1.132,2.1,2.1,0,0,0-1.109,2.723c4.307,10.656,2.806,21.117-3.569,24.872-3.473,2.046-7.99,1.872-12.722-.491-5-2.5-9.572-7.085-12.874-12.92a38.015,38.015,0,0,1-1.793-3.617h3.4a2.085,2.085,0,0,0,0-4.17H38.815a2.085,2.085,0,0,0,0,4.17h5.013a41.946,41.946,0,0,0,2.678,5.7c3.7,6.545,8.893,11.723,14.616,14.58a21.508,21.508,0,0,0,7.426,2.244L68.256,91.8a1.9,1.9,0,0,1-1.887,1.755H29.658A1.9,1.9,0,0,1,27.772,91.8L24.351,53.918H38.817a2.085,2.085,0,0,0,0-4.17H19.041V41.84H35.222l8.742.018V43a6.9,6.9,0,0,0,6.816,6.956,6.665,6.665,0,0,0,2.73-.583v6.468a7.274,7.274,0,1,0,14.546,0V41.906l8.931.018V49.75H70.782a2.085,2.085,0,0,0,0,4.17h.9L69.4,79.187a2.073,2.073,0,0,0,1.847,2.267c.064.006.127.008.19.008a2.059,2.059,0,0,0,2.032-1.893l2.319-25.65h3.249a2.065,2.065,0,0,0,2.043-2.085V39.756A2.078,2.078,0,0,0,79.709,37.8a11.228,11.228,0,0,0,.1-1.388,10.957,10.957,0,0,0-1.78-6.007,10.569,10.569,0,0,0-8.881-4.864,10.338,10.338,0,0,0-3.512.611,13.884,13.884,0,0,0-12.048-7.171,13.674,13.674,0,0,0-9.067,3.459,16.635,16.635,0,0,0-9.432-2.959,16.4,16.4,0,0,0-7.6,1.846,2.106,2.106,0,0,0-.9,2.8,2.025,2.025,0,0,0,2.746.917,12.411,12.411,0,0,1,5.755-1.4,12.662,12.662,0,0,1,8.288,3.131,2.016,2.016,0,0,0,2.862-.216,9.679,9.679,0,0,1,7.348-3.414,9.827,9.827,0,0,1,9.155,6.5,2.06,2.06,0,0,0,1.245,1.241,2.008,2.008,0,0,0,1.73-.189,5.891,5.891,0,0,1,1-.509c.059-.023.117-.048.174-.076a6.339,6.339,0,0,1,2.25-.41,6.514,6.514,0,0,1,5.477,3,6.751,6.751,0,0,1,1.1,3.7,6.87,6.87,0,0,1-.12,1.262H66.015a2.065,2.065,0,0,0-2.043,2.085c0,.01,0,.02,0,.03s0,.021,0,.031V55.842a3.188,3.188,0,1,1-6.374,0V43a2.043,2.043,0,1,0-4.086,0,2.731,2.731,0,1,1-5.461,0V39.777s0-.007,0-.01,0-.007,0-.01a2.065,2.065,0,0,0-2.043-2.085h-10.8l-12.858-.025q-.034-.478-.034-.962a13.147,13.147,0,0,1,2.479-7.72,2.112,2.112,0,0,0-.434-2.914,2.014,2.014,0,0,0-2.856.443,17.358,17.358,0,0,0-3.275,10.191c0,.33.03.659.047.987H17A2.066,2.066,0,0,0,14.953,39.756Z" transform="translate(-14.953 -6.876)" fill="#112d4e"/>
      <path id="Path_62" data-name="Path 62" d="M66.374,15.547a6.175,6.175,0,0,0-5.455,2.429A1.838,1.838,0,1,0,63.844,20.2a2.529,2.529,0,0,1,3.944-.1,2.509,2.509,0,0,1,.59,1.842,1.839,1.839,0,0,0,1.679,1.985c.052,0,.1.006.154.006a1.839,1.839,0,0,0,1.83-1.686,6.2,6.2,0,0,0-5.669-6.7Z" transform="translate(-13.026 -6.29)" fill="#112d4e"/>
      <path id="Path_63" data-name="Path 63" d="M49.927,11.6a6.119,6.119,0,1,0-6.119,6.118A6.126,6.126,0,0,0,49.927,11.6Zm-8.561,0a2.441,2.441,0,1,1,2.441,2.441A2.444,2.444,0,0,1,41.366,11.6Z" transform="translate(-13.954 -5.479)" fill="#112d4e"/>
      <path id="Path_64" data-name="Path 64" d="M77.853,17.717A6.118,6.118,0,1,0,71.735,11.6,6.126,6.126,0,0,0,77.853,17.717Zm0-8.561A2.441,2.441,0,1,1,75.412,11.6,2.444,2.444,0,0,1,77.853,9.156Z" transform="translate(-12.457 -5.479)" fill="#112d4e"/>
      <path id="Path_65" data-name="Path 65" d="M20.273,20.779a1.614,1.614,0,0,0,.221.276A1.884,1.884,0,0,0,21.8,21.6a2.371,2.371,0,0,0,.358-.037,2.1,2.1,0,0,0,.34-.11,2.126,2.126,0,0,0,.322-.165,1.663,1.663,0,0,0,.276-.23,1.309,1.309,0,0,0,.23-.276,2.178,2.178,0,0,0,.175-.322,1.45,1.45,0,0,0,.1-.34,1.583,1.583,0,0,0,.037-.358,2.019,2.019,0,0,0-.138-.708,2.085,2.085,0,0,0-.175-.313,1.359,1.359,0,0,0-.23-.285,2.284,2.284,0,0,0-.276-.23,2.127,2.127,0,0,0-.322-.165,1.45,1.45,0,0,0-.34-.1,1.879,1.879,0,0,0-1.664.5,1.683,1.683,0,0,0-.221.285,1.5,1.5,0,0,0-.175.313,2.019,2.019,0,0,0-.138.708,1.583,1.583,0,0,0,.037.358,1.45,1.45,0,0,0,.1.34A1.566,1.566,0,0,0,20.273,20.779Z" transform="translate(-15.357 -6.484)" fill="#112d4e"/>
      <path id="Path_66" data-name="Path 66" d="M61.319,10.49a2.052,2.052,0,0,0-.394-.6,1.886,1.886,0,0,0-1.665-.506,2.44,2.44,0,0,0-.34.11,2.171,2.171,0,0,0-.322.165,1.664,1.664,0,0,0-.276.23,1.62,1.62,0,0,0-.23.276,2.22,2.22,0,0,0-.166.322,2.441,2.441,0,0,0-.11.34,2.368,2.368,0,0,0-.036.358,1.867,1.867,0,0,0,.542,1.305,2.214,2.214,0,0,0,.276.23,2.084,2.084,0,0,0,.322.165,1.917,1.917,0,0,0,.7.138,1.821,1.821,0,0,0,1.838-1.838,1.893,1.893,0,0,0-.139-.7Z" transform="translate(-13.823 -5.792)" fill="#112d4e"/>
    </g>
  </g>
</svg>
