<svg id="noun_Calendar_2533033" xmlns="http://www.w3.org/2000/svg" width="121.42" height="122.766" viewBox="0 0 121.42 122.766">
  <g id="Group_33" data-name="Group 33" transform="translate(0 0)">
    <g id="Group_32" data-name="Group 32" transform="translate(0 0)">
      <g id="Group_15" data-name="Group 15" transform="translate(0 62.942)">
        <path id="Path_42" data-name="Path 42" d="M93.343,266.675H25.582a1.582,1.582,0,0,1,0-3.163H93.343a1.582,1.582,0,0,1,0,3.163Z" transform="translate(-24 -263.512)" fill="#112d4e"/>
      </g>
      <g id="Group_16" data-name="Group 16" transform="translate(76.27 62.942)">
        <path id="Path_43" data-name="Path 43" d="M318.011,266.675h-2.186a1.582,1.582,0,1,1,0-3.163h2.186a1.582,1.582,0,0,1,0,3.163Z" transform="translate(-314.244 -263.512)" fill="#112d4e"/>
      </g>
      <g id="Group_17" data-name="Group 17" transform="translate(15.301 36.772)">
        <path id="Path_44" data-name="Path 44" d="M94.56,184.65H83.631a1.582,1.582,0,0,1-1.582-1.582V171.047a7.046,7.046,0,0,1,14.092,0v12.022A1.582,1.582,0,0,1,94.56,184.65Zm-9.348-3.163h7.766v-10.44a3.883,3.883,0,0,0-7.766,0Z" transform="translate(-82.049 -164.001)" fill="#112d4e"/>
      </g>
      <g id="Group_18" data-name="Group 18" transform="translate(49.724 0)">
        <path id="Path_45" data-name="Path 45" d="M255.119,95.292a1.582,1.582,0,0,1-1.582-1.582V81.064a8.264,8.264,0,0,0-8.255-8.255h-5.464a1.582,1.582,0,0,1-1.582-1.582V67.949a3.883,3.883,0,1,0-7.766,0v3.279a1.582,1.582,0,0,1-1.582,1.582H217.519a1.582,1.582,0,0,1-1.492-1.056A35.85,35.85,0,1,1,255.36,95.274,1.613,1.613,0,0,1,255.119,95.292ZM241.4,69.646h3.883A11.431,11.431,0,0,1,256.7,81.064V91.812a32.669,32.669,0,1,0-38.042-22.166h8.649v-1.7a7.046,7.046,0,1,1,14.092,0v1.7Z" transform="translate(-214 -24)" fill="#112d4e"/>
      </g>
      <g id="Group_19" data-name="Group 19" transform="translate(0 45.284)">
        <path id="Path_46" data-name="Path 46" d="M105.365,274.653H35.418A11.431,11.431,0,0,1,24,263.235V208.589a11.431,11.431,0,0,1,11.418-11.418h5.465a1.581,1.581,0,0,1,1.582,1.582v7.162H50.23v-7.162a1.582,1.582,0,0,1,1.582-1.582h37.16a1.582,1.582,0,0,1,1.582,1.582v7.162h7.766v-7.162a1.582,1.582,0,0,1,1.582-1.582h5.464a11.431,11.431,0,0,1,11.418,11.418v54.646A11.43,11.43,0,0,1,105.365,274.653ZM35.418,200.334a8.264,8.264,0,0,0-8.255,8.255v54.646a8.264,8.264,0,0,0,8.255,8.255h69.947a8.264,8.264,0,0,0,8.255-8.255V208.589a8.264,8.264,0,0,0-8.255-8.255h-3.883V207.5a1.582,1.582,0,0,1-1.582,1.582H88.972A1.582,1.582,0,0,1,87.39,207.5v-7.162h-34V207.5a1.582,1.582,0,0,1-1.582,1.582H40.883A1.582,1.582,0,0,1,39.3,207.5v-7.162Z" transform="translate(-24 -197.171)" fill="#112d4e"/>
      </g>
      <g id="Group_20" data-name="Group 20" transform="translate(63.179 36.772)">
        <path id="Path_47" data-name="Path 47" d="M277,184.65H266.071a1.582,1.582,0,0,1-1.582-1.582V171.047a7.046,7.046,0,1,1,14.092,0v12.022A1.581,1.581,0,0,1,277,184.65Zm-9.347-3.163h7.766v-10.44a3.883,3.883,0,1,0-7.766,0v10.44Z" transform="translate(-264.489 -164.001)" fill="#112d4e"/>
      </g>
      <g id="Group_21" data-name="Group 21" transform="translate(68.175 23.644)">
        <path id="Path_48" data-name="Path 48" d="M301.4,127.706a1.581,1.581,0,0,1-.877-.266L284.7,116.9a1.581,1.581,0,0,1,1.754-2.632L301.665,124.4l17.748-5.071a1.582,1.582,0,1,1,.869,3.041l-18.451,5.272A1.578,1.578,0,0,1,301.4,127.706Z" transform="translate(-284 -113.999)" fill="#112d4e"/>
      </g>
      <g id="Group_22" data-name="Group 22" transform="translate(13.179 81.449)">
        <path id="Path_49" data-name="Path 49" d="M83.489,345.071H75.582A1.582,1.582,0,0,1,74,343.489v-7.908A1.582,1.582,0,0,1,75.582,334h7.908a1.582,1.582,0,0,1,1.582,1.582v7.908A1.582,1.582,0,0,1,83.489,345.071Zm-6.326-3.163h4.745v-4.745H77.163Z" transform="translate(-74 -334)" fill="#112d4e"/>
      </g>
      <g id="Group_23" data-name="Group 23" transform="translate(31.528 81.449)">
        <path id="Path_50" data-name="Path 50" d="M153.489,345.071h-7.908A1.582,1.582,0,0,1,144,343.489v-7.908A1.582,1.582,0,0,1,145.582,334h7.908a1.582,1.582,0,0,1,1.582,1.582v7.908A1.582,1.582,0,0,1,153.489,345.071Zm-6.326-3.163h4.745v-4.745h-4.745Z" transform="translate(-144 -334)" fill="#112d4e"/>
      </g>
      <g id="Group_24" data-name="Group 24" transform="translate(49.92 81.449)">
        <path id="Path_51" data-name="Path 51" d="M223.489,345.071h-7.908A1.582,1.582,0,0,1,214,343.489v-7.908A1.582,1.582,0,0,1,215.582,334h7.908a1.582,1.582,0,0,1,1.582,1.582v7.908A1.582,1.582,0,0,1,223.489,345.071Zm-6.326-3.163h4.745v-4.745h-4.745Z" transform="translate(-214 -334)" fill="#112d4e"/>
      </g>
      <g id="Group_25" data-name="Group 25" transform="translate(68.311 81.449)">
        <path id="Path_52" data-name="Path 52" d="M293.489,345.071h-7.908A1.582,1.582,0,0,1,284,343.489v-7.908A1.582,1.582,0,0,1,285.582,334h7.908a1.582,1.582,0,0,1,1.582,1.582v7.908A1.582,1.582,0,0,1,293.489,345.071Zm-6.326-3.163h4.745v-4.745h-4.745Z" transform="translate(-284 -334)" fill="#112d4e"/>
      </g>
      <g id="Group_26" data-name="Group 26" transform="translate(13.179 99.802)">
        <path id="Path_53" data-name="Path 53" d="M83.489,415.071H75.582A1.582,1.582,0,0,1,74,413.489v-7.908A1.582,1.582,0,0,1,75.582,404h7.908a1.582,1.582,0,0,1,1.582,1.582v7.908A1.582,1.582,0,0,1,83.489,415.071Zm-6.326-3.163h4.745v-4.745H77.163Z" transform="translate(-74 -404)" fill="#112d4e"/>
      </g>
      <g id="Group_27" data-name="Group 27" transform="translate(49.92 99.802)">
        <path id="Path_54" data-name="Path 54" d="M223.489,415.071h-7.908A1.582,1.582,0,0,1,214,413.489v-7.908A1.582,1.582,0,0,1,215.582,404h7.908a1.582,1.582,0,0,1,1.582,1.582v7.908A1.582,1.582,0,0,1,223.489,415.071Zm-6.326-3.163h4.745v-4.745h-4.745Z" transform="translate(-214 -404)" fill="#112d4e"/>
      </g>
      <g id="Group_28" data-name="Group 28" transform="translate(68.311 99.802)">
        <path id="Path_55" data-name="Path 55" d="M293.489,415.071h-7.908A1.582,1.582,0,0,1,284,413.489v-7.908A1.582,1.582,0,0,1,285.582,404h7.908a1.582,1.582,0,0,1,1.582,1.582v7.908A1.582,1.582,0,0,1,293.489,415.071Zm-6.326-3.163h4.745v-4.745h-4.745Z" transform="translate(-284 -404)" fill="#112d4e"/>
      </g>
      <g id="Group_29" data-name="Group 29" transform="translate(31.528 102.438)">
        <path id="Path_56" data-name="Path 56" d="M147.558,422.435c-.053,0-.106,0-.159-.008a1.581,1.581,0,0,1-1.107-.625l-1.977-2.636a1.581,1.581,0,0,1,2.53-1.9l.946,1.261,4.646-4.13a1.582,1.582,0,1,1,2.1,2.364l-5.931,5.272A1.583,1.583,0,0,1,147.558,422.435Z" transform="translate(-143.999 -414)" fill="#112d4e"/>
      </g>
      <g id="Group_30" data-name="Group 30" transform="translate(28.899 7.908)">
        <path id="Path_57" data-name="Path 57" d="M140.853,67.707a6.853,6.853,0,1,1,6.853-6.853A6.861,6.861,0,0,1,140.853,67.707Zm0-10.544a3.69,3.69,0,1,0,3.69,3.69A3.694,3.694,0,0,0,140.853,57.163Z" transform="translate(-134 -54)" fill="#112d4e"/>
      </g>
      <g id="Group_31" data-name="Group 31" transform="translate(102.442 84.055)">
        <path id="Path_58" data-name="Path 58" d="M423.489,362.978a9.489,9.489,0,1,1,9.489-9.489A9.5,9.5,0,0,1,423.489,362.978Zm0-15.815a6.326,6.326,0,1,0,6.326,6.326A6.333,6.333,0,0,0,423.489,347.163Z" transform="translate(-414 -344)" fill="#112d4e"/>
      </g>
    </g>
  </g>
</svg>
