<svg xmlns="http://www.w3.org/2000/svg" width="98" height="101.794" viewBox="0 0 98 101.794">
  <g id="Group_4" data-name="Group 4" transform="translate(-775.083 -625.077)">
    <path id="Path_21" data-name="Path 21" d="M870.76,876.774c.708-.17,1.482-.331,2.323-.5-8.173-1.625-9.5-2.939-11.136-11.018a.009.009,0,0,1-.01.009,178.955,178.955,0,0,1-.019-19.334v-.076c.01-.123.01-.236.019-.35.019-.227.028-.435.038-.624.009-.095.009-.189.019-.274v-.066c.01-.151.019-.293.029-.416a2.014,2.014,0,0,0,.01-.236.962.962,0,0,0,.019-.151.389.389,0,0,1,.009-.1c0-.066.01-.132.01-.179.01-.142.019-.217.019-.217H783.715c1.357,26.951-8.632,54.8-8.632,54.8h39.756V872.21h14.31v25.826h39.757a66.378,66.378,0,0,1-5.229-17.236c-1.195,1.531-1.845,3.77-2.562,7.3-1.625-8.079-2.954-9.393-11.136-11.009,8.183-1.625,9.511-2.93,11.136-11.019a35.906,35.906,0,0,0,1.147,4.517c.009.019.009.038.019.057a1.962,1.962,0,0,0,.076.217c0-.019-.009-.028-.009-.047C863.667,874.45,865.675,875.65,870.76,876.774Zm-49.927-11.529h-5.993v-5.925h5.993Zm0-8.221h-5.993V851.1h5.993Zm8.317,8.221h-5.994v-5.925h5.994Zm0-8.221h-5.994V851.1h5.994Z" transform="translate(0 -171.166)" fill="#fff"/>
    <path id="Path_22" data-name="Path 22" d="M880.813,662.9,840.489,626.3a3.813,3.813,0,0,0-5.59,0L818.924,640.8l-.029.019c1.225,2.637,3.12,3.629,7.274,4.555.479.1,1,.217,1.541.321-7.581,1.493-8.815,2.712-10.328,10.2-.115-.548-.22-1.058-.326-1.54-.976-4.262-2.038-6.114-4.958-7.3a.009.009,0,0,0-.009-.009c-.01,0-.019-.009-.029-.009L794.575,662.9a3.706,3.706,0,0,0,2.785,6.2h80.668A3.706,3.706,0,0,0,880.813,662.9Zm-8.365,2.2a2.589,2.589,0,0,1-.89.321c-.125.01-.306.019-.421.019h-.249l-2.92-.019-3.9-.038c-2.594-.057-5.2-.085-7.791-.2-5.2-.18-10.395-.444-15.592-.954,5.2-.51,10.395-.775,15.592-.955.919-.038,1.867-.066,2.786-.085l-.68-.029,5.245-.3a2.654,2.654,0,0,0,1.675-4.593l-2.412-2.221.057.038c-.565-.472-1.149-.945-1.7-1.436-3.982-3.317-7.877-6.719-11.639-10.291,4.4,2.788,8.643,5.765,12.826,8.8,2.106,1.512,4.154,3.081,6.241,4.631,1.024.766,2.048,1.569,3.063,2.353l.775.6.191.142a3.435,3.435,0,0,1,.316.274,2.681,2.681,0,0,1,.507.765A2.545,2.545,0,0,1,872.448,665.106Z" transform="translate(-14.528)" fill="#fff"/>
    <path id="Path_23" data-name="Path 23" d="M883.31,734.4c-.123.539-.245,1.125-.368,1.739-1.03-5.15-1.937-7.569-4.526-9.044C881.3,728.283,882.346,730.135,883.31,734.4Z" transform="translate(-80.807 -80.042)" fill="#fff"/>
    <path id="Path_24" data-name="Path 24" d="M859.083,666.19c.17.87.35,1.673.52,2.391-1.371,6.492-2.722,7.843-9.223,9.2-.718-.17-1.5-.34-2.372-.51C856.144,675.64,857.458,674.326,859.083,666.19Z" transform="translate(-57.013 -32.259)" fill="#fff"/>
    <path id="Path_25" data-name="Path 25" d="M918.47,702.3c-.614.123-1.181.246-1.72.359-4.1-.926-5.972-1.918-7.182-4.555l.028-.019C911.108,700.442,913.537,701.312,918.47,702.3Z" transform="translate(-105.152 -57.288)" fill="#fff"/>
  </g>
</svg>
