<svg xmlns="http://www.w3.org/2000/svg" width="123.122" height="89.505" viewBox="0 0 123.122 89.505">
  <g id="Logo" transform="translate(-119 -99.495)">
    <g id="Group_2" data-name="Group 2" transform="translate(155.847 99.495)">
      <path id="Path_21" data-name="Path 21" d="M823.125,860.077c.355-.085.744-.166,1.166-.251-4.1-.816-4.771-1.476-5.592-5.533a0,0,0,0,1,0,0,89.838,89.838,0,0,1-.01-9.708v-.038c0-.062,0-.119.01-.176.009-.114.014-.218.019-.313,0-.048,0-.095.01-.138v-.033c0-.076.01-.147.014-.209a1.017,1.017,0,0,0,0-.119.485.485,0,0,0,.01-.076.191.191,0,0,1,0-.052c0-.033,0-.066,0-.09,0-.071.01-.109.01-.109H779.417c.682,13.533-4.334,27.516-4.334,27.516h19.963V857.785h7.185v12.968h19.963a33.33,33.33,0,0,1-2.626-8.655,8.861,8.861,0,0,0-1.286,3.663c-.816-4.057-1.483-4.716-5.592-5.528,4.109-.816,4.776-1.471,5.592-5.533a18.04,18.04,0,0,0,.576,2.268c0,.01,0,.019.01.028a.976.976,0,0,0,.038.109c0-.009,0-.014,0-.024C819.563,858.91,820.571,859.512,823.125,860.077Zm-25.07-5.789h-3.009v-2.975h3.009Zm0-4.128h-3.009v-2.975h3.009Zm4.176,4.128h-3.01v-2.975h3.01Zm0-4.128h-3.01v-2.975h3.01Z" transform="translate(-775.083 -819.64)" fill="#4c71b1"/>
      <path id="Path_22" data-name="Path 22" d="M837.391,644.071l-20.248-18.382a1.915,1.915,0,0,0-2.807,0l-8.021,7.284-.014.01c.615,1.324,1.567,1.822,3.653,2.287.24.052.5.109.774.161-3.806.75-4.426,1.362-5.186,5.12-.058-.275-.11-.531-.164-.773-.49-2.14-1.023-3.07-2.489-3.668a0,0,0,0,0,0,0s-.01,0-.015,0l-8.781,7.971a1.861,1.861,0,0,0,1.4,3.113h40.505A1.861,1.861,0,0,0,837.391,644.071Zm-4.2,1.106a1.3,1.3,0,0,1-.447.161c-.063,0-.154.009-.211.009h-.125l-1.466-.009-1.956-.019c-1.3-.029-2.61-.043-3.912-.1-2.61-.09-5.219-.223-7.829-.479,2.61-.256,5.219-.389,7.829-.479.462-.019.937-.033,1.4-.043l-.341-.014,2.634-.152a1.333,1.333,0,0,0,.841-2.306l-1.211-1.115.029.019c-.284-.237-.577-.474-.856-.721-2-1.666-3.955-3.374-5.844-5.167,2.211,1.4,4.34,2.895,6.44,4.418,1.057.759,2.086,1.547,3.134,2.325.514.384,1.028.788,1.538,1.181l.389.3.1.071a1.73,1.73,0,0,1,.159.138,1.348,1.348,0,0,1,.255.384A1.278,1.278,0,0,1,833.191,645.177Z" transform="translate(-791.596 -625.077)" fill="#4c71b1"/>
      <path id="Path_23" data-name="Path 23" d="M880.873,730.76c-.062.27-.123.565-.185.873-.517-2.586-.973-3.8-2.273-4.541C879.862,727.69,880.389,728.62,880.873,730.76Z" transform="translate(-867.104 -716.059)" fill="#4c71b1"/>
      <path id="Path_24" data-name="Path 24" d="M853.569,666.19c.085.437.176.84.261,1.2-.688,3.26-1.367,3.938-4.631,4.622-.361-.085-.754-.171-1.191-.256C852.093,670.935,852.753,670.276,853.569,666.19Z" transform="translate(-840.018 -661.744)" fill="#4c71b1"/>
      <path id="Path_25" data-name="Path 25" d="M914.038,700.205c-.308.062-.593.123-.864.18-2.059-.465-3-.963-3.606-2.287l.014-.009C910.341,699.271,911.561,699.707,914.038,700.205Z" transform="translate(-894.839 -690.193)" fill="#4c71b1"/>
    </g>
    <g id="Group_5" data-name="Group 5" transform="translate(119 155.102)">
      <path id="Path" d="M10.924,1.667V.224h2.583v6.4H10.924V5.169A5.131,5.131,0,0,0,6.431,2.7a4.362,4.362,0,0,0-2.668.7,2.376,2.376,0,0,0-.927,2.017A2.251,2.251,0,0,0,3.714,7.34,7.78,7.78,0,0,0,6.4,8.461l2.485.658a9.7,9.7,0,0,1,3.644,1.667,4.915,4.915,0,0,1,1.657,2.2,8.191,8.191,0,0,1,.386,2.592,5.933,5.933,0,0,1-1.8,4.553,6.766,6.766,0,0,1-4.816,1.681,7.691,7.691,0,0,1-5.237-2.1v1.751H.084V13.77h2.64v1.863q1.9,3.474,4.942,3.474a3.9,3.9,0,0,0,2.766-.918,3.362,3.362,0,0,0,.983-2.585q0-2.269-3.2-3.152l-2.64-.742-.119-.034A9.332,9.332,0,0,1,1.362,9.512,4.993,4.993,0,0,1,0,5.855,5.61,5.61,0,0,1,1.65,1.534,6.432,6.432,0,0,1,6.206,0,7.64,7.64,0,0,1,10.924,1.667Z" transform="translate(0 0)" fill="#112d4e"/>
      <path id="Path-2" data-name="Path" d="M17.965,7.631a8.069,8.069,0,0,1-.954,3.851,7.348,7.348,0,0,1-2.6,2.828,6.733,6.733,0,0,1-3.656,1.036,7.021,7.021,0,0,1-5.179-2.268v5.853H8.449v2.576H0V18.931H2.667V2.786H.2V.2H5.572V2.548A7.33,7.33,0,0,1,7.986.63,6.462,6.462,0,0,1,10.807,0a6.812,6.812,0,0,1,3.719,1.029,7.06,7.06,0,0,1,2.533,2.779A8.2,8.2,0,0,1,17.965,7.631Z" transform="translate(16.497 6.579)" fill="#112d4e"/>
      <path id="Path-3" data-name="Path" d="M5.142,10.172a3.592,3.592,0,0,0,2.166-.7A4.685,4.685,0,0,0,8.817,7.562a6.133,6.133,0,0,0,.545-2.553,5.3,5.3,0,0,0-.6-2.5A4.787,4.787,0,0,0,7.112.68,4.242,4.242,0,0,0,4.751,0,4.351,4.351,0,0,0,2.292.723,4.9,4.9,0,0,0,.6,2.638,5.747,5.747,0,0,0,0,5.261,4.609,4.609,0,0,0,1.446,8.867,5.307,5.307,0,0,0,5.142,10.172Z" transform="translate(22.064 9.109)" fill="#fff"/>
      <path id="Path-4" data-name="Path" d="M7.743,18.881v2.626H0V18.881H2.6V2.6H0V0H5.5V18.881Z" transform="translate(67.203 0)" fill="#112d4e"/>
      <path id="Path-5" data-name="Path" d="M15.586,8.509H3.216a5.176,5.176,0,0,0,1.643,3.349,4.878,4.878,0,0,0,3.37,1.229,6.147,6.147,0,0,0,2.71-.6,5.276,5.276,0,0,0,2.092-1.854l2.556,1.151a7.782,7.782,0,0,1-3.166,2.843,9.537,9.537,0,0,1-4.262.962,8.811,8.811,0,0,1-4.241-1,7.208,7.208,0,0,1-2.886-2.78A7.87,7.87,0,0,1,0,7.793a7.927,7.927,0,0,1,1.018-4A7.314,7.314,0,0,1,3.805,1a7.771,7.771,0,0,1,3.9-1,7.8,7.8,0,0,1,4.065,1.032,7.213,7.213,0,0,1,2.731,2.949A10.436,10.436,0,0,1,15.586,8.509Z" transform="translate(77.527 6.376)" fill="#112d4e"/>
      <path id="Path-6" data-name="Path" d="M4.451,0A4.15,4.15,0,0,0,1.582,1.111,5.124,5.124,0,0,0,0,4.048H9.21A5.2,5.2,0,0,0,7.488,1.111,4.569,4.569,0,0,0,4.451,0Z" transform="translate(80.816 8.755)" fill="#fff"/>
      <path id="Path-7" data-name="Path" d="M8.79.83V.2h2.531V5.105H8.79v-.9A4,4,0,0,0,5.33,2.391,3.241,3.241,0,0,0,3.446,2.9a1.531,1.531,0,0,0-.731,1.308A1.319,1.319,0,0,0,3.27,5.331a6.69,6.69,0,0,0,2.5.717l1.955.38q4.374.8,4.374,4.29a3.955,3.955,0,0,1-1.582,3.277,6.625,6.625,0,0,1-4.2,1.238,7.069,7.069,0,0,1-2.046-.3,6.29,6.29,0,0,1-1.681-.752v.8H0V9.916H2.588v.506a2.61,2.61,0,0,0,1.188,1.716,4.019,4.019,0,0,0,2.271.647,4.272,4.272,0,0,0,2.236-.5A1.63,1.63,0,0,0,9.1,10.8a1.158,1.158,0,0,0-.647-1.076l-.032-.017a10.7,10.7,0,0,0-2.57-.721l-1.5-.323A6.06,6.06,0,0,1,1.069,7.117a3.9,3.9,0,0,1-1.041-2.8A3.7,3.7,0,0,1,.795,1.962,4.735,4.735,0,0,1,2.756.492,6.406,6.406,0,0,1,5.218,0,7.089,7.089,0,0,1,8.79.83Z" transform="translate(96.048 6.528)" fill="#112d4e"/>
      <path id="Path-8" data-name="Path" d="M8.79.83V.2h2.531V5.105H8.79v-.9A4,4,0,0,0,5.33,2.391,3.241,3.241,0,0,0,3.446,2.9a1.531,1.531,0,0,0-.731,1.308A1.319,1.319,0,0,0,3.27,5.331a6.69,6.69,0,0,0,2.5.717l1.955.38q4.374.8,4.374,4.29a3.955,3.955,0,0,1-1.582,3.277,6.625,6.625,0,0,1-4.2,1.238,7.069,7.069,0,0,1-2.046-.3,6.29,6.29,0,0,1-1.681-.752v.8H0V9.916H2.588v.506a2.61,2.61,0,0,0,1.188,1.716,4.019,4.019,0,0,0,2.271.647,4.272,4.272,0,0,0,2.236-.5A1.63,1.63,0,0,0,9.1,10.8a1.158,1.158,0,0,0-.647-1.076l-.032-.017a10.7,10.7,0,0,0-2.57-.721l-1.5-.323A6.06,6.06,0,0,1,1.069,7.117a3.9,3.9,0,0,1-1.041-2.8A3.7,3.7,0,0,1,.795,1.962,4.735,4.735,0,0,1,2.756.492,6.406,6.406,0,0,1,5.218,0,7.089,7.089,0,0,1,8.79.83Z" transform="translate(111.027 6.528)" fill="#112d4e"/>
      <text id="Deep_Cleaning" data-name="Deep Cleaning" transform="translate(58 30.898)" fill="#3f72af" font-size="8" font-family="Avenir-Medium, Avenir" font-weight="500" letter-spacing="0.024em"><tspan x="0" y="0">Deep Cleaning</tspan></text>
      <path id="Path-9" data-name="Path" d="M15.485,7.793a7.756,7.756,0,0,1-1.024,3.932,7.634,7.634,0,0,1-6.7,3.861,7.786,7.786,0,0,1-4-1.039,7.331,7.331,0,0,1-2.77-2.822A7.971,7.971,0,0,1,0,7.793,8.09,8.09,0,0,1,.989,3.777,7.139,7.139,0,0,1,3.745,1,7.977,7.977,0,0,1,7.757,0,7.515,7.515,0,0,1,11.7,1.06,7.674,7.674,0,0,1,14.475,3.9,7.759,7.759,0,0,1,15.485,7.793Z" transform="translate(37.195 6.376)" fill="#112d4e"/>
      <path id="Path-10" data-name="Path" d="M4.709,9.969a4.38,4.38,0,0,0,2.369-.675A4.684,4.684,0,0,0,8.759,7.48a5.239,5.239,0,0,0,.6-2.489,5.182,5.182,0,0,0-.6-2.461A4.843,4.843,0,0,0,7.077.7a4.329,4.329,0,0,0-2.4-.7A4.346,4.346,0,0,0,2.312.682a4.816,4.816,0,0,0-1.7,1.835A5.168,5.168,0,0,0,0,4.992,5.168,5.168,0,0,0,.617,7.466a4.728,4.728,0,0,0,1.71,1.828A4.45,4.45,0,0,0,4.709,9.969Z" transform="translate(40.231 9.16)" fill="#fff"/>
      <path id="Path-11" data-name="Path" d="M7.54,5.332V8.166h-2.7v8.442a3.576,3.576,0,0,0,.26,1.708.993.993,0,0,0,.893.391,4.368,4.368,0,0,0,1.547-.291v2.865a7.61,7.61,0,0,1-2.18.429,3.172,3.172,0,0,1-2.631-1,5.558,5.558,0,0,1-.8-3.387V8.166H0V5.332H1.927V2.9L4.839,0V5.332Z" transform="translate(55.261 0)" fill="#112d4e"/>
    </g>
  </g>
</svg>
