<svg id="noun_Secure_Payment_2502247" data-name="noun_Secure Payment_2502247" xmlns="http://www.w3.org/2000/svg" width="121.42" height="95.228" viewBox="0 0 121.42 95.228">
  <rect id="Rectangle_29" data-name="Rectangle 29" width="45.511" height="3.951" transform="translate(14.073 74.559)" fill="#112d4e"/>
  <rect id="Rectangle_30" data-name="Rectangle 30" width="14.064" height="3.951" transform="translate(55.86 74.559)" fill="#112d4e"/>
  <path id="Path_59" data-name="Path 59" d="M124.43,63.208l-17.095-8.615V46.652a6.319,6.319,0,0,0-6.326-6.326H94.952L88.491,18.654a5.671,5.671,0,0,0-2.827-3.5,4.742,4.742,0,0,0-4.038-.269L8.671,40.46A5.712,5.712,0,0,0,4.9,46.113V99.955a6.319,6.319,0,0,0,6.326,6.326H94.548a33.808,33.808,0,0,0,8.749,3.365c.269,0,.538.135.808.135a1.707,1.707,0,0,0,.808-.135c21.133-4.846,21.4-23.69,21.4-23.825V66.169A3.227,3.227,0,0,0,124.43,63.208ZM81.9,66.169v1.75H8.267V59.035H92.125l-8.48,4.307A3,3,0,0,0,81.9,66.169Zm.942-47.919a1.786,1.786,0,0,1,1.481.135,2.084,2.084,0,0,1,1.077,1.481L91.587,40.46H18.9ZM8.267,46.786v-.4a2.834,2.834,0,0,1,2.961-2.557h89.915a2.988,2.988,0,0,1,2.961,2.961v6.6a3.068,3.068,0,0,0-1.481.4L98.855,55.67H8.267Zm2.961,56.13a2.988,2.988,0,0,1-2.961-2.961V71.284H81.9V88.379c0,.269.135.4.135.673a.5.5,0,0,0,.135.4c0,.269.135.538.135.942,0,.135,0,.135.135.269.135.4.269.808.4,1.346a.47.47,0,0,0,.135.269c.135.4.269.673.4,1.077,0,.135.135.269.135.538.135.269.269.673.4.942.135.135.135.4.269.538a3.374,3.374,0,0,0,.538.942,1.02,1.02,0,0,1,.269.538c.135.269.4.673.538.942.135.135.269.4.4.538.269.4.538.673.808,1.077l.4.4a14.257,14.257,0,0,0,1.346,1.615h0a12.693,12.693,0,0,0,1.346,1.346H11.228ZM122.949,85.821c0,.673-.269,16.287-18.844,20.594h-.135a26.171,26.171,0,0,1-8.211-3.23A21.748,21.748,0,0,1,85.126,85.821V71.284h0V66.3l18.844-9.557,18.844,9.422V85.821Z" transform="translate(-4.894 -14.553)" fill="#112d4e"/>
  <path id="Path_60" data-name="Path 60" d="M79.155,73.992l-7.269-7.111L69.2,69.726l9.955,9.8L99.54,60.244,96.854,57.4Z" transform="translate(15.707 -2.202)" fill="#112d4e"/>
</svg>
