<svg xmlns="http://www.w3.org/2000/svg" width="135.438" height="112.528" viewBox="0 0 135.438 112.528">
  <g id="noun_Bed_1386623" transform="translate(0 -4)">
    <path id="Path_89" data-name="Path 89" d="M11.287,65.146H124.152V52.667A16.93,16.93,0,0,0,110.937,36.15a194.442,194.442,0,0,0-86.436,0A16.93,16.93,0,0,0,11.287,52.667ZM22.025,25.139a205.727,205.727,0,0,1,91.389,0,28.216,28.216,0,0,1,22.025,27.529V76.433H0V52.667A28.216,28.216,0,0,1,22.025,25.139Z" transform="translate(0 29.146)" fill="#112d4e"/>
    <path id="Path_90" data-name="Path 90" d="M43.86,34.573V28.93a5.643,5.643,0,0,0-5.643-5.643H26.93a5.643,5.643,0,0,0-5.643,5.643v5.643ZM26.93,12H38.216a16.93,16.93,0,0,1,16.93,16.93V45.86H10V28.93A16.93,16.93,0,0,1,26.93,12Z" transform="translate(18.216 14.573)" fill="#112d4e"/>
    <path id="Path_91" data-name="Path 91" d="M55.86,34.573V28.93a5.643,5.643,0,0,0-5.643-5.643H38.93a5.643,5.643,0,0,0-5.643,5.643v5.643ZM38.93,12H50.216a16.93,16.93,0,0,1,16.93,16.93V45.86H22V28.93A16.93,16.93,0,0,1,38.93,12Z" transform="translate(40.076 14.573)" fill="#112d4e"/>
    <rect id="Rectangle_43" data-name="Rectangle 43" width="11" height="11" transform="translate(11.283 105.528)" fill="#112d4e"/>
    <rect id="Rectangle_44" data-name="Rectangle 44" width="12" height="11" transform="translate(112.283 105.528)" fill="#112d4e"/>
    <path id="Path_92" data-name="Path 92" d="M15.287,58.833V20.93a5.643,5.643,0,0,1,5.643-5.643H99.936a5.643,5.643,0,0,1,5.643,5.643V49.513h11.287V20.93A16.93,16.93,0,0,0,99.936,4H20.93A16.93,16.93,0,0,0,4,20.93v37.9Z" transform="translate(7.287)" fill="#112d4e"/>
  </g>
</svg>
