<svg xmlns="http://www.w3.org/2000/svg" width="139.932" height="123.339" viewBox="0 0 139.932 123.339">
  <g id="noun_Home_3139647" transform="translate(-0.068 -0.25)">
    <g id="Group_57" data-name="Group 57" transform="translate(0.068 0.25)">
      <path id="Path_93" data-name="Path 93" d="M125.537,52.114v65.549a6.116,6.116,0,0,1-5.939,5.927H84.664a5.882,5.882,0,0,1-5.939-5.927V84.888H61.607v32.774a6.116,6.116,0,0,1-5.939,5.927H20.734a6.116,6.116,0,0,1-5.939-5.927V52.114L6.76,58.39a3.185,3.185,0,0,1-4.192-.349L.821,55.6a3.17,3.17,0,0,1,.349-4.184L66.5,1.557a5.8,5.8,0,0,1,7.336,0l64.978,49.859a2.892,2.892,0,0,1,.7,4.184l-1.747,2.441a11.639,11.639,0,0,1-2.1,1.046,2.57,2.57,0,0,1-2.1-.7ZM23.878,45.489v69.384h29V82.1a5.6,5.6,0,0,1,5.59-5.927H81.52A5.68,5.68,0,0,1,87.459,82.1v32.774h29V45.489L69.992,9.925Z" transform="translate(-0.189 -0.25)" fill="#112d4e"/>
    </g>
  </g>
</svg>
