<svg xmlns="http://www.w3.org/2000/svg" width="1633.287" height="523.838" viewBox="0 0 1633.287 523.838">
  <g id="Group_3" data-name="Group 3" transform="translate(-666.713 -1197.228)">
    <g id="HOUSE" transform="translate(666.713 1197.228)">
      <path id="Path_21" data-name="Path 21" d="M1267.445,1015.822c3.641-.876,7.625-1.7,11.953-2.576-42.058-8.364-48.9-15.125-57.308-56.7a.048.048,0,0,1-.049.049,920.759,920.759,0,0,1-.1-99.5v-.389c.05-.632.05-1.215.1-1.8.1-1.169.145-2.237.2-3.209.049-.487.049-.973.1-1.411v-.34c.051-.777.1-1.507.148-2.139a10.469,10.469,0,0,0,.049-1.217,5,5,0,0,0,.1-.778,1.969,1.969,0,0,1,.049-.534c0-.34.049-.681.049-.924.05-.73.1-1.119.1-1.119H819.5c6.985,138.691-44.42,282-44.42,282H979.672V992.334h73.641v132.905H1257.9c-12.742-26.066-21.252-56.993-26.909-88.7-6.148,7.878-9.495,19.4-13.183,37.541-8.363-41.576-15.2-48.336-57.309-56.652,42.109-8.365,48.947-15.075,57.309-56.7a184.882,184.882,0,0,0,5.9,23.245c.049.1.049.193.1.292a9.909,9.909,0,0,0,.392,1.118c0-.1-.048-.146-.048-.243C1230.945,1003.861,1241.275,1010.036,1267.445,1015.822Zm-256.931-59.328H979.672V926h30.842Zm0-42.308H979.672V883.7h30.842Zm42.8,42.308H1022.47V926h30.843Zm0-42.308H1022.47V883.7h30.843Z" transform="translate(-775.083 -601.401)" fill="#4c71b1"/>
      <path id="Path_22" data-name="Path 22" d="M1242.414,819.74,1034.9,631.351a19.621,19.621,0,0,0-28.764,0L923.929,706l-.147.1c6.3,13.567,16.057,18.673,37.433,23.439,2.463.535,5.122,1.118,7.93,1.653-39.011,7.683-45.363,13.957-53.147,52.47-.59-2.819-1.132-5.446-1.676-7.926-5.022-21.932-10.489-31.463-25.512-37.59a.048.048,0,0,0-.049-.049c-.049,0-.1-.047-.149-.047l-89.988,81.7c-11.231,12.3-2.414,31.9,14.332,31.9H1228.08C1244.828,851.642,1253.645,832.044,1242.414,819.74Zm-43.049,11.332a13.318,13.318,0,0,1-4.58,1.654c-.642.049-1.577.1-2.168.1h-1.28l-15.024-.1-20.047-.194c-13.348-.292-26.747-.439-40.094-1.022-26.745-.924-53.492-2.285-80.236-4.911,26.745-2.626,53.492-3.989,80.236-4.912,4.73-.194,9.6-.34,14.334-.437l-3.5-.147L1154,819.547a13.659,13.659,0,0,0,8.621-23.635l-12.412-11.428.295.194c-2.905-2.431-5.91-4.861-8.768-7.391-20.489-17.069-40.537-34.577-59.894-52.958,22.656,14.346,44.478,29.666,66,45.275,10.836,7.782,21.377,15.853,32.115,23.829,5.271,3.939,10.54,8.071,15.76,12.107l3.99,3.064.985.73a17.72,17.72,0,0,1,1.626,1.411,13.807,13.807,0,0,1,2.61,3.938A13.1,13.1,0,0,1,1199.365,831.072Z" transform="translate(-773.078 -625.077)" fill="#4c71b1"/>
      <path id="Path_23" data-name="Path 23" d="M903.6,764.684c-.633,2.772-1.263,5.788-1.9,8.948-5.3-26.5-9.969-38.953-23.292-46.54C893.247,733.22,898.646,742.752,903.6,764.684Z" transform="translate(-762.498 -614.018)" fill="#4c71b1"/>
      <path id="Path_24" data-name="Path 24" d="M905,666.19c.875,4.475,1.8,8.609,2.675,12.3-7.053,33.408-14.005,40.364-47.464,47.366-3.7-.876-7.732-1.75-12.206-2.626C889.878,714.82,896.638,708.061,905,666.19Z" transform="translate(-766.124 -620.625)" fill="#4c71b1"/>
      <path id="Path_25" data-name="Path 25" d="M955.379,719.778c-3.161.632-6.081,1.265-8.852,1.847-21.1-4.765-30.732-9.871-36.959-23.44l.148-.1C917.494,710.2,929.994,714.673,955.379,719.778Z" transform="translate(-758.62 -617.17)" fill="#4c71b1"/>
    </g>
    <g id="Group_2" data-name="Group 2" transform="translate(0 -11)">
      <text id="Deep_Cleaning" data-name="Deep Cleaning" transform="translate(1227 1651.794)" fill="#3f72af" font-size="160" font-family="BrandonText-Bold, Brandon Text" font-weight="700" letter-spacing="0.024em"><tspan x="0" y="0">Deep Cleaning</tspan></text>
      <g id="SPOTLESS" transform="translate(-22 1054)">
        <path id="Path" d="M87.754,13.391V1.8h20.754V53.228H87.754v-11.7Q74.557,21.719,51.66,21.719q-13.987,0-21.431,5.627t-7.444,16.2q0,10.128,7.05,15.417t21.6,9L71.4,73.259q19.062,5.064,29.27,13.391t13.31,17.668a65.8,65.8,0,0,1,3.1,20.819q0,23.069-14.438,36.573t-38.688,13.5q-23.123,0-42.072-16.88V172.4H.677V110.62H21.882v14.967Q37.109,153.5,61.586,153.5q14.325,0,22.22-7.371t7.9-20.762q0-18.23-25.717-25.32L44.779,94.078l-.959-.277Q21.652,87.316,10.941,76.41,0,65.269,0,47.039,0,24.645,13.253,12.322T49.855,0Q70.158,0,87.754,13.391Z" transform="translate(1249 236)" fill="#112d4e"/>
        <path id="Path-2" data-name="Path" d="M144.318,61.3a64.822,64.822,0,0,1-7.667,30.933,59.031,59.031,0,0,1-20.915,22.722,54.093,54.093,0,0,1-29.371,8.324q-23.79,0-41.6-18.222v47.018H67.874v20.7H0v-20.7H21.422V22.384H1.578V1.575H44.761v18.9A58.883,58.883,0,0,1,64.154,5.062,51.915,51.915,0,0,1,86.816,0a54.723,54.723,0,0,1,29.878,8.268A56.717,56.717,0,0,1,137.046,30.6,65.844,65.844,0,0,1,144.318,61.3Z" transform="translate(1381.529 288.849)" fill="#112d4e"/>
        <path id="Path-3" data-name="Path" d="M41.308,81.712a28.855,28.855,0,0,0,17.4-5.635A37.637,37.637,0,0,0,70.83,60.749a49.265,49.265,0,0,0,4.378-20.513,42.585,42.585,0,0,0-4.827-20.118A38.453,38.453,0,0,0,57.136,5.466,34.076,34.076,0,0,0,38.165,0,34.953,34.953,0,0,0,18.409,5.8,39.36,39.36,0,0,0,4.827,21.189,46.168,46.168,0,0,0,0,42.265Q0,60.749,11.618,71.231T41.308,81.712Z" transform="translate(1426.247 309.175)" fill="#fff"/>
        <path id="Path-4" data-name="Path" d="M62.2,151.68v21.1H0v-21.1H20.92V20.866H0V0H44.2V151.68Z" transform="translate(1788.871 236)" fill="#112d4e"/>
        <path id="Path-5" data-name="Path" d="M125.211,68.358H25.832q2.143,17.033,13.2,26.9t27.073,9.87a49.381,49.381,0,0,0,21.771-4.851,42.384,42.384,0,0,0,16.808-14.89l20.53,9.25a62.515,62.515,0,0,1-25.437,22.843,76.611,76.611,0,0,1-34.236,7.727q-19.177,0-34.066-8.009A57.9,57.9,0,0,1,8.291,94.867,63.223,63.223,0,0,1,0,62.605,63.683,63.683,0,0,1,8.178,30.457,58.753,58.753,0,0,1,30.57,8.065,62.43,62.43,0,0,1,61.929,0Q80.654,0,94.585,8.291a57.948,57.948,0,0,1,21.94,23.689Q124.534,47.377,125.211,68.358Z" transform="translate(1871.803 287.223)" fill="#112d4e"/>
        <path id="Path-6" data-name="Path" d="M35.757,0A33.341,33.341,0,0,0,12.706,8.927Q2.811,17.853,0,32.522H73.988q-3.261-14.669-13.831-23.6A36.7,36.7,0,0,0,35.757,0Z" transform="translate(1898.228 306.329)" fill="#fff"/>
        <path id="Path-7" data-name="Path" d="M70.611,6.666V1.582H90.947V41.014H70.611V33.783Q60.443,19.208,42.818,19.208q-9.264,0-15.139,4.068T21.8,33.783a10.6,10.6,0,0,0,4.463,9.039Q30.73,46.1,46.321,48.585l15.7,3.051Q97.161,58.076,97.16,86.1q0,16.383-12.71,26.326t-33.724,9.943a56.784,56.784,0,0,1-16.438-2.429,50.527,50.527,0,0,1-13.5-6.045v6.44H0V79.656H20.788v4.068a20.971,20.971,0,0,0,9.547,13.784,32.29,32.29,0,0,0,18.246,5.2q11.411,0,17.963-4.011A13.092,13.092,0,0,0,73.1,86.774a9.306,9.306,0,0,0-5.2-8.644l-.253-.137Q62.328,75.177,47,72.2L34.91,69.6Q16.947,65.985,8.586,57.172T.226,34.687A29.738,29.738,0,0,1,6.383,15.762,38.035,38.035,0,0,1,22.144,3.955,51.459,51.459,0,0,1,41.915,0Q58.974,0,70.611,6.666Z" transform="translate(2020.592 288.442)" fill="#112d4e"/>
        <path id="Path-8" data-name="Path" d="M70.611,6.666V1.582H90.947V41.014H70.611V33.783Q60.443,19.208,42.818,19.208q-9.264,0-15.139,4.068T21.8,33.783a10.6,10.6,0,0,0,4.463,9.039Q30.73,46.1,46.321,48.585l15.7,3.051Q97.161,58.076,97.16,86.1q0,16.383-12.71,26.326t-33.724,9.943a56.784,56.784,0,0,1-16.438-2.429,50.527,50.527,0,0,1-13.5-6.045v6.44H0V79.656H20.788v4.068a20.971,20.971,0,0,0,9.547,13.784,32.29,32.29,0,0,0,18.246,5.2q11.411,0,17.963-4.011A13.092,13.092,0,0,0,73.1,86.774a9.306,9.306,0,0,0-5.2-8.644l-.253-.137Q62.328,75.177,47,72.2L34.91,69.6Q16.947,65.985,8.586,57.172T.226,34.687A29.738,29.738,0,0,1,6.383,15.762,38.035,38.035,0,0,1,22.144,3.955,51.459,51.459,0,0,1,41.915,0Q58.974,0,70.611,6.666Z" transform="translate(2140.925 288.442)" fill="#112d4e"/>
        <path id="Path-9" data-name="Path" d="M124.4,62.605a62.306,62.306,0,0,1-8.226,31.585,61.327,61.327,0,0,1-53.861,31.021A62.551,62.551,0,0,1,30.2,116.864,58.89,58.89,0,0,1,7.944,94.19,64.032,64.032,0,0,1,0,62.605Q0,44.557,7.944,30.344A57.347,57.347,0,0,1,30.085,8.065Q44.283,0,62.312,0A60.367,60.367,0,0,1,93.975,8.517a61.651,61.651,0,0,1,22.311,22.843A62.33,62.33,0,0,1,124.4,62.605Z" transform="translate(1547.799 287.223)" fill="#112d4e"/>
        <path id="Path-10" data-name="Path" d="M37.829,80.086a35.183,35.183,0,0,0,19.027-5.422,37.629,37.629,0,0,0,13.51-14.571A42.087,42.087,0,0,0,75.208,40.1a41.625,41.625,0,0,0-4.841-19.767A38.906,38.906,0,0,0,56.856,5.591,34.778,34.778,0,0,0,37.6,0,34.915,34.915,0,0,0,18.577,5.478,38.69,38.69,0,0,0,4.954,20.219,41.518,41.518,0,0,0,0,40.1,41.518,41.518,0,0,0,4.954,59.98,37.979,37.979,0,0,0,18.689,74.664,35.749,35.749,0,0,0,37.829,80.086Z" transform="translate(1572.191 309.582)" fill="#fff"/>
        <path id="Path-11" data-name="Path" d="M60.573,42.831V65.6h-21.7v67.816q0,10.585,2.091,13.723t7.176,3.138a35.087,35.087,0,0,0,12.431-2.338v23.016Q49.724,174.4,43.056,174.4q-14.691,0-21.133-8.062-6.372-7.974-6.441-27.207V65.6H0V42.831H15.482V23.262L38.875,0V42.831Z" transform="translate(1692.93 236)" fill="#112d4e"/>
      </g>
    </g>
  </g>
</svg>
